<?xml version="1.0" encoding="utf-8" ?>
<svg baseProfile="full" height="300mm" version="1.1" viewBox="0,0,200,300" width="200mm" xmlns="http://www.w3.org/2000/svg" xmlns:ev="http://www.w3.org/2001/xml-events" xmlns:xlink="http://www.w3.org/1999/xlink"><defs /><rect fill="#222222" height="300" width="200" x="0" y="0" /><text fill="#FFFFFF" style="font-size:12px; font-family:Arial; font-weight:bold;" x="10" y="20">Over 10km Runs</text><text fill="#FFFFFF" style="font-size:4px; font-family:Arial" x="10" y="280">ATHLETE</text><text fill="#FFFFFF" style="font-size:9px; font-family:Arial" x="10" y="290">WenQi</text><text fill="#FFFFFF" style="font-size:4px; font-family:Arial" x="65" y="280">SPECIAL TRACKS</text><rect fill="yellow" height="2.6" width="2.6" x="65" y="283" /><text fill="#FFFFFF" style="font-size:3px; font-family:Arial" x="70" y="285.5">Over 20.0 km</text><rect fill="red" height="2.6" width="2.6" x="65" y="287" /><text fill="#FFFFFF" style="font-size:3px; font-family:Arial" x="70" y="289.5">Over 40.0 km</text><text fill="#FFFFFF" style="font-size:4px; font-family:Arial" x="120" y="280">STATISTICS</text><text fill="#FFFFFF" style="font-size:3px; font-family:Arial" x="120" y="285">Number: 4</text><text fill="#FFFFFF" style="font-size:3px; font-family:Arial" x="120" y="290">Weekly: 1.0</text><text fill="#FFFFFF" style="font-size:3px; font-family:Arial" x="141" y="285">Total: 42.5 km</text><text fill="#FFFFFF" style="font-size:3px; font-family:Arial" x="141" y="290">Avg: 10.6 km</text><text fill="#FFFFFF" style="font-size:3px; font-family:Arial" x="167" y="285">Min: 10.1 km</text><text fill="#FFFFFF" style="font-size:3px; font-family:Arial" x="167" y="290">Max: 12.1 km</text><polyline fill="none" points="16.103094638325274,64.02602791824029 15.141237855306827,65.01338462813874 15.17038503056392,66.41846272553084 15.199532205821015,66.87416210267111 15.316120906849392,67.55770967388526 16.56944944220595,67.59568448644131 17.61874775099568,67.44378520324244 19.22184238920454,67.55770967388526 20.9706729039317,67.55770967388526 23.069269521394745,67.59568448644131 25.48848506656941,67.59568448644131 28.140878013684414,67.8235332450422 29.36505937378388,68.1273312799749 30.297768981661648,67.74758368096082 32.687837351462804,67.78555846569361 35.048758546239696,67.78555846569361 37.234796689474024,67.78555846569361 38.16750629711896,67.74758368096082 39.828895285958424,67.74758368096082 42.277258006390184,67.8235332450422 43.23911478940863,68.05138180436916 45.48344728315715,67.8235332450422 46.44530406629201,67.86150801877375 48.07754587975796,67.97543230679003 49.68064051819965,67.93745754973497 50.32187837350648,67.93745754973497 51.95412018708885,68.05138180436916 54.54821878368966,68.05138180436916 56.6759625764098,68.39315426998655 59.007736596046016,68.39315426998655 59.707268801750615,68.39315426998655 61.71842389355879,68.39315426998655 63.14663548045792,68.62100233125966 62.680280676460825,70.63365155141219 62.21392587258015,73.17792171152541 61.89330694498494,75.68419339793036 61.601835192414,78.03854786950978 61.36865779059008,80.43085400853306 60.989744512480684,82.67124777653953 60.785714285681024,84.30406499665696 60.552536883740686,86.88617366898688 60.40680100757163,88.25316201860551 60.43594818271231,89.7340579709853 60.1444764303742,91.44277361151762 59.853004678036086,92.99959366189432 60.08618207986001,93.45524655122426 60.72741993528325,93.37930445835809 63.000899604172446,92.88568031517207 64.66228859301191,92.65785347213387 65.39096797409002,92.7337957751879 66.9357682619011,92.7337957751879 68.91777617845219,92.69582462642575 70.17110471404158,92.7337957751879 72.47373155818786,92.5819111468445 73.81450161919929,92.65785347213387 75.3884490825003,92.61988231219584 77.10813242185395,92.54393997581792 79.1484346886864,92.65785347213387 79.78967254410964,92.5819111468445 81.421914357692,92.65785347213387 82.47121266636532,92.69582462642575 85.12360561348032,92.69582462642575 85.93972652032971,92.77176691839122 88.00917596265208,92.77176691839122 90.39924433256965,92.69582462642575 92.49784094991628,92.7337957751879 94.85876214469317,92.69582462642575 95.38341129897162,92.3161128340289 95.41255847434513,90.45551705258549 95.41255847434513,89.08854025730398 95.38341129897162,87.41778110153973 95.35426412383094,85.40526153039536 95.26682259805966,82.78516558909905 95.35426412383094,80.50679987546755 95.44170564948581,79.1777440085134 95.38341129897162,76.51961193594616 95.38341129897162,74.12726988381473 95.41255847434513,71.73490586446133 95.32511694845743,70.3678308474191 95.29596977331676,69.72226515144575 95.29596977331676,68.50707832546323 95.35426412383094,65.8108623160806 95.1502338971477,63.760200472257566 95.06279237137642,61.40571696852567 94.85876214469317,58.74740356692928 94.85876214469317,56.81061529376893 93.19737315585371,56.65870972216362 91.79830874421168,56.65870972216362 89.72885930200573,56.62073331550346 88.44638359115925,56.468827633187175 87.45537963300012,56.58275690316805 85.9980208708439,56.544780485419324 85.38593019067775,56.544780485419324 82.67524289316498,56.468827633187175 80.3434688737616,56.468827633187175 78.39060813235119,56.50680406205356 77.34130982367788,56.354898313380545 75.79650953586679,56.65870972216362 73.66876574303024,57.68407061128528 71.74505217699334,58.93728399515385 70.84148974448908,59.39299645833671 69.38413098244928,60.22846723700059 67.95591939555015,61.177862596930936 66.35282475710846,62.50701028833282 64.89546599506866,64.4817314799875 64.51655271672644,65.0513598115067 63.81702051090542,66.34251275184215 63.175782655598596,68.69695164071163 62.97175242903177,69.76023964837077 62.50539762491826,71.84882845872198 62.24307304783724,73.93740052607609 61.92245412012562,76.29177078211796 61.57268801738974,78.7980125156464 61.426952141104266,80.20301627495792 61.13548038864974,81.57003968779463 61.16462756390683,82.44341200211784 60.87315581145231,84.60784381564008 60.66912558476906,86.24064889975125 60.610831234254874,86.88617366898688 60.52338970848359,88.97462520058616 60.52338970848359,89.54419998591766 60.43594818271231,90.68334582133684 59.94044620357454,92.92365143631469 60.17362360551488,93.53118862200063 61.835012594470754,93.18944912933512 63.52554875856731,92.80973805629765 65.65329255128745,92.84770918844151 67.4021230658982,92.7337957751879 69.15095358039252,92.7337957751879 70.7540482187178,92.7337957751879 73.0566750629805,92.77176691839122 74.39744512410834,92.69582462642575 75.00953580427449,92.65785347213387 76.0879812882049,92.77176691839122 77.77851745241787,92.61988231219584 80.08114429656416,92.61988231219584 82.41291831596754,92.61988231219584 83.81198272760957,92.77176691839122 84.83213386114221,92.5819111468445 86.84328895295039,92.84770918844151 88.97103274567053,92.80973805629765 90.42839150771033,92.77176691839122 92.43954659951851,92.88568031517207 92.90590140339918,93.03756476647686 94.30496581515763,92.80973805629765 95.26682259805966,92.61988231219584 95.35426412383094,91.55668758921092 95.32511694845743,90.49348852797993 95.32511694845743,88.82273838095716 95.29596977331676,88.13924659663462 95.35426412383094,86.65834158009966 95.32511694845743,85.59512253140565 95.29596977331676,84.64581614307826 95.26682259805966,82.63327516132267 95.32511694845743,80.50679987546755 95.26682259805966,78.76003933598986 95.32511694845743,77.31705440516816 95.32511694845743,76.63353243810707 95.32511694845743,75.60824612530996 95.32511694845743,73.17792171152541 95.32511694845743,71.43111203616718 95.32511694845743,69.95011205031187 95.26682259805966,68.20328073340352 95.29596977331676,66.45643770397874 95.29596977331676,64.86148383936961 95.17938107228838,62.772839012992335 95.1210867218906,60.38037072712905 95.03364519611932,58.32966613775352 94.85876214469317,56.92454441424343 93.43055055767763,56.69668612332316 90.9530406621052,56.65870972216362 89.00017992069479,56.65870972216362 88.12576466356404,56.69668612332316 85.96887369558681,56.58275690316805 83.84112990298308,56.58275690316805 82.41291831596754,56.58275690316805 81.36362000717781,56.544780485419324 79.26502338983119,56.468827633187175 78.06998920475598,56.468827633187175 76.55433609208558,56.58275690316805 75.12612450530287,56.88656804623315 73.34814681543503,57.94990425705328 71.511874775053,59.013236127677374 70.57916516729165,59.54490043554688 68.5097157250857,60.798104868183145 67.13979848870076,61.82344946550438 65.4492623246042,63.6462743410666 64.42911119107157,65.16528532834491 63.4964015831938,67.40581036859658 62.53454480029177,67.59568448644131 61.48524649150204,67.63365929332213 60.52338970848359,67.36783552842098 58.86200071964413,67.55770967388526 57.084023029892705,67.67163409467321 56.38449082407169,67.67163409467321 55.014573587686755,67.59568448644131 54.22759985609446,67.63365929332213 53.469773299759254,67.63365929332213 52.77024109393824,67.51973485582857 51.662648434750736,67.67163409467321 50.292731198249385,67.63365929332213 49.622346167685464,67.51973485582857 48.893666786607355,67.44378520324244 46.82421734428499,67.44378520324244 45.046239654533565,67.55770967388526 43.618028067750856,67.48176003230037 42.91849586192984,67.2918858314224 41.927491903537884,67.51973485582857 40.470133141381666,67.48176003230037 39.01277437922545,67.32986068271566 37.32223821512889,67.36783552842098 36.5935588341672,67.44378520324244 35.602554875891656,67.32986068271566 34.52410939184483,67.2918858314224 32.39636559900828,67.13998637121404 31.63853904278949,67.06403660785872 30.297768981661648,67.06403660785872 30.152033105492592,67.97543230679003 30.093738754978403,69.9121375810355 29.62738395098131,70.29188202504884 29.452500899671577,71.6209832202876 29.56908960058354,72.30451833768166 29.539942425326444,74.0133482858073 29.51079525006935,74.6968771267857 29.56908960058354,76.82339983101701 29.452500899671577,78.6461197634926 28.05343648791313,78.76003933598986 26.246311622904614,78.72206615062896 25.109571788460016,78.49422692280496 23.739654551958665,78.41828046919545 22.71950341842603,78.30436074745376 21.699352285126224,78.34233399352524 20.94152572879102,78.30436074745376 19.51331414177548,78.03854786950978 18.784634760697372,77.9626012830995 17.385570349055342,77.81070804395131 15.578445483930409,77.54489466239465 14.558294350630604,77.3930011796765 14.529147175257094,75.79811426537344 14.5,74.3930867521558 14.645735876169056,72.30451833768166 14.762324577197433,70.17795874996227 14.8497661028523,69.19062161250622 15.112090680166148,67.89948278697557 16.482007916434668,67.63365929332213 17.15239294699859,67.55770967388526 18.230838431045413,67.59568448644131 19.95052177051548,67.55770967388526 20.679201151477173,67.63365929332213 22.078265563119203,67.67163409467321 23.53562432527542,67.74758368096082 24.264303706469946,67.67163409467321 26.333753148675896,67.78555846569361 27.29560993157793,67.78555846569361 28.66552716807928,67.89948278697557 27.29560993157793,67.74758368096082 25.8965455199359,67.67163409467321 24.49748110829387,67.67163409467321 23.477329974761233,67.55770967388526 23.76880172721576,67.2918858314224 24.876394386519678,67.32986068271566 26.36290032370016,67.40581036859658 27.324757106951438,67.25391097468673" stroke="#4DD2FF" stroke-linecap="round" stroke-linejoin="round" stroke-width="0.5"><title>2025-01-01 12.1km</title><desc>9223370301162992407</desc></polyline><polyline fill="none" points="106.81842576048803,63.18275847285986 106.23881932033692,63.069484628154896 105.22450805013068,63.484821816324256 105.19552772818133,64.4665252500854 105.25348837231286,64.99513325028238 105.63023255823646,66.50543587846914 106.55760286236182,66.73198051328654 108.00661896239035,66.8074953473697 109.86135957075749,66.8074953473697 111.3393559929682,66.8452527563204 113.42593917727936,66.88301015965408 115.54150268342346,66.76973793309298 117.74400715576485,67.03403971798252 119.1350626120111,67.26058389045647 120.29427549196407,67.03403971798252 122.49677996430546,66.99628233668045 123.97477638651617,66.99628233668045 125.74257602868602,66.95852494981955 127.16261180688161,67.03403971798252 128.5246869410621,66.99628233668045 130.2055456173839,67.07179709392949 132.0023255815031,67.03403971798252 132.66887298750225,67.22282654212904 133.45134168153163,67.1473118289723 134.84239713777788,67.18506918824278 135.82772808591835,67.41161322861444 137.24776386399753,67.18506918824278 138.52289803232998,67.29834123328328 139.9139534884598,67.33609857063857 142.00053667277098,67.41161322861444 143.68139534885995,67.37385590237682 145.44919499114621,67.37385590237682 147.1300536673516,67.56264247884974 148.17334525939077,67.41161322861444 149.68032200366724,67.52488517461461 150.11502683372237,68.0534869338153 151.85384615394287,67.86470071508666 152.34651162812952,67.86470071508666 153.01305903401226,68.20451580968802 152.75223613611888,69.60152873795596 152.17262969596777,71.86693909353926 151.88282647589222,74.20784231490688 151.73792486591265,76.88852808621596 151.39016100182198,79.15387471791473 151.01341681589838,81.19266974946368 150.81055456178728,82.92940841696691 150.49177101976238,84.930418968288 150.2019677995704,87.15794083679793 150.11502683372237,88.47934306395473 150.14400715578813,89.91400070799864 149.9121645797277,90.78234226460336 149.7093023256166,92.14147972781211 150.14400715578813,92.55677030829247 152.7812164579518,92.028218544845 154.37513416819274,91.87720355729107 155.96905187843367,91.76394225869444 158.11359570675995,91.76394225869444 159.18586762086488,91.76394225869444 161.53327370306943,91.76394225869444 163.06923076941166,91.91495731243049 163.73577817541081,91.87720355729107 166.34400715562515,91.76394225869444 168.16976744192652,91.87720355729107 169.155098390067,91.83944979659282 171.589445438236,91.80169603048125 172.22701252240222,91.80169603048125 173.90787119872402,91.76394225869444 176.25527728092857,91.80169603048125 178.31288014317397,91.80169603048125 179.87781753146555,91.80169603048125 181.47173524159007,91.87720355729107 182.57298747776076,91.80169603048125 183.9060822899919,91.76394225869444 184.94937388203107,91.6884346989682 185.21019677992444,91.08437342816615 185.38407871196978,88.74362270059646 185.4420393561013,86.62937805886031 185.4420393561013,85.4212305166875 185.1812164579751,83.64675359945977 185.0652951700613,81.07940377978957 185.4420393561013,78.73856265176437 185.5,77.75691330313566 185.41305903415196,75.41604215255938 185.23917710210662,72.77309768865234 185.29713774612173,70.65872270258842 185.21019677992444,69.752556711348 185.38407871196978,68.31778740894515 185.35509839002043,66.58095077876351 185.35509839002043,65.71252809659927 185.09427549201064,63.145000529970275 185.0652951700613,61.48364560227492 184.9203935599653,60.80399733351078 184.9203935599653,59.331419966649264 184.89141323801596,57.93435164913535 184.74651162791997,56.61279360280605 184.48568872991018,56.04640951892361 183.1815742397448,55.895373554027174 180.8631484793732,55.85761454908061 179.9067978534149,55.85761454908061 177.5304114491446,55.7820965226274 176.40017889102455,55.85761454908061 175.067084078677,55.6688194416638 173.154382826644,55.6688194416638 172.48783542052843,55.6688194416638 170.14042933809105,55.70657847414259 167.7350626118714,55.63106040362618 166.34400715562515,55.70657847414259 164.9819320216775,56.04640951892361 162.9822898033308,57.1791764482914 161.41735241515562,58.16090378005174 159.38872987474315,59.29366146255052 157.27316636859905,60.766239043994574 155.65026833640877,62.42759857303463 155.15760286245495,62.95621073403163 153.99838998215273,65.03289092323394 153.27388193202205,66.1656185548054 151.622003577766,66.46767842007102 150.2889087657677,66.50543587846914 149.65134168160148,66.88301015965408 150.11502683372237,67.90245796978706 150.08604651177302,68.4688161307713 149.85420393571258,70.58320899115643 149.53542039357126,73.22617579749203 149.24561717361212,74.47213651094353 149.01377459755167,76.81301619063015 148.78193202160764,78.85182964499108 148.26028622547165,81.45695681951474 148.05742397159338,84.09981269124546 147.79660107346717,86.13856879938976 147.47781753120944,87.8752743107325 147.36189624341205,89.19667287904304 147.21699463331606,89.9517547491705 147.2459749552654,91.19763502373826 147.07209302322008,92.51901664660545 146.57942754926626,92.8587994032132 144.31896243302617,93.34959593150415 142.08747763873544,93.87814499915112 140.46457960642874,94.25567938716267 138.03023255825974,94.36893959640292 136.75509839016013,94.25567938716267 134.6974955277983,93.87814499915112 133.6831842578249,93.61387060009292 132.3790697674267,93.31184238544665 131.07495527737774,92.8965530153364 129.24919499107637,92.33024825598113 128.55366726301145,92.10372600564733 127.33649373881053,91.83944979659282 126.00339892669581,91.27314272656804 123.94579606456682,90.82009617934818 122.06207513425034,90.0272628153034 120.4681574240094,89.49870589125203 120.1493738819845,89.0834104087262 120.20733452611603,88.21506315772422 120.00447227200493,87.95078298193403 119.5118067979347,88.51709731432493 119.1350626120111,89.19667287904304 118.06279069778975,89.30993529991247 116.41091234365012,89.00790206770762 114.2953488372732,88.51709731432493 112.29570661892649,88.1018002582714 109.83237924869172,87.53548501804471 108.76010733458679,87.42222182138357 106.73148479440715,86.8559050958429 104.76082289812621,86.44060537673067 104.58694096619729,85.4212305166875 104.55796064401511,83.4579787440307 104.61592128814664,81.00389310580795 104.84776386420708,79.34265270968899 104.93470483017154,77.64364583115093 106.38372093031649,77.37935487081995 107.6588550984161,77.30384311833768 110.06422182475217,77.37935487081995 112.41162790707313,77.5681341557356 114.20840787130874,77.87018072549836 114.90393559937365,77.90793652189313 116.32397137745284,78.02120387830655 117.7729874777142,78.17222694298835 119.16404293384403,78.39876137510873 119.5118067979347,79.34265270968899 119.48282647598535,80.43756234933971 119.39588550990447,82.70287794678006 119.5118067979347,84.17532246277551 119.54078712000046,85.19470222527161 119.33792486588936,86.66713257870288 119.1350626120111,88.1018002582714 118.75831842585467,89.30993529991247 117.74400715576485,89.27218116517179 116.23703041160479,89.0834104087262 113.80268336320296,88.47934306395473 112.41162790707313,88.1018002582714 111.02057245082688,87.79976561752846 108.99194991053082,87.42222182138357 107.97763864055742,87.27120414900128 106.20983899827115,86.78039610540145 105.25348837231286,86.59162353342981 104.5,86.06305960001191 104.58694096619729,83.4579787440307 104.70286225399468,81.04164844562183 104.84776386420708,79.00285222541424 105.05062611808535,77.49262245823047 104.99266547418665,76.32218833311344 104.96368515212089,74.92521164816571 105.05062611808535,74.24559864509501 105.05062611808535,72.43328858693712 105.07960644026753,70.39442461592262 105.19552772818133,69.4127436473791 105.28246869414579,67.90245796978706 105.68819320213515,66.95852494981955 106.32576028630137,66.76973793309298 108.12254025053699,66.76973793309298 109.94830053683836,66.76973793309298 112.09284436504822,66.73198051328654 113.1940966011025,66.65646565693896 114.20840787130874,66.61870822060155 114.932915921323,66.73198051328654 116.32397137745284,66.8452527563204 117.7729874777142,66.92076755742892 118.6713774597738,67.07179709392949 118.78729874792043,66.69422308786307 117.88890876574442,66.46767842007102 117.7729874777142,66.09010353355552 117.7150268338155,65.14616390925949 117.7150268338155,64.88186019813293" stroke="#4DD2FF" stroke-linecap="round" stroke-linejoin="round" stroke-width="0.5"><title>2024-11-30 10.2km</title><desc>9223370303928489407</desc></polyline><polyline fill="none" points="94.44377939298283,235.75059076996695 94.77276613941649,235.2993899457797 95.24027362122433,235.32195001827495 95.5,234.87074794439832 95.41342454042751,234.53234552578942 95.48268490814371,233.90065903110371 94.6688755879295,233.69761639591889 93.43950406159274,233.51713382998423 92.74690038478002,233.53969416221662 91.58678922621766,233.53969416221662 91.03270628477912,233.56225449121848 90.46130825142609,233.53969416221662 90.09769132110523,233.53969416221662 89.31851218477823,233.4945734944631 88.90294997865567,233.56225449121848 87.8120991876931,233.6299354584189 86.66930312098702,233.6073751392978 85.59576742199715,233.5848148169025 84.64343736640876,233.56225449121848 83.63916203513509,233.51713382998423 82.5309961521998,233.5848148169025 81.09384352288907,233.56225449121848 80.36660966230556,233.56225449121848 79.46622488240246,233.56225449121848 79.06797776831081,233.6073751392978 78.3580589996418,233.67505608672218 77.16331765719224,233.6524957742222 75.62227447627811,233.6073751392978 75.20671227021376,233.53969416221662 73.9946558358497,233.6524957742222 73.96002565207891,233.90065903110371 73.63103890547063,233.78785760003666 72.76528430957114,233.56225449121848 72.02073535701493,233.53969416221662 71.4839675075491,233.5848148169025 70.96451474993955,233.35921141209838 70.35848653275752,233.24640958633972 69.26763574179495,233.24640958633972 67.9690038478002,233.2915303265181 67.1551945276442,233.11104728694772 66.41064557508798,233.15616806657636 65.40637024369789,233.24640958633972 64.69645147502888,233.4494528134819 64.14236853364855,233.2915303265181 63.43244976486312,233.2238492113247 62.37622915772954,233.20128883307916 61.371953826455865,233.24640958633972 60.62740487389965,233.11104728694772 59.865540829487145,233.13360767842096 59.27682770421961,233.13360767842096 58.68811457895208,233.20128883307916 57.35485250107013,233.20128883307916 56.48909790517064,233.13360767842096 56.09085079090437,233.13360767842096 55.328986746491864,233.15616806657636 54.93073963240022,233.0884868921712 53.96109448483912,232.93056403688388 53.19923044042662,232.8854431915388 52.61051731510088,232.84032233298058 51.55429670808371,232.81776189879747 50.705857203982305,232.72752012904675 49.684266780735925,232.63727830663265 49.0609234716394,232.43423401398468 48.47221034637187,232.43423401398468 48.09127832413651,232.43423401398468 47.13894826848991,232.38911302387714 46.567550235195085,232.29887100416818 45.39012398471823,232.1409473431122 45.02650705433916,232.1409473431122 44.714835399820004,232.0055840767891 44.36853356141364,231.98302352089377 44.05686190689448,232.47935499089363 43.60666951694293,233.35921141209838 43.12184694322059,233.96833985028206 42.9313809320447,234.2841832817794 42.394613082520664,234.6000260686851 41.892475416883826,233.9909001167398 41.97905087651452,233.67505608672218 41.52885848656297,233.02080568828387 41.00940572901163,232.8628827638895 39.64151346730068,232.75008057637024 38.41214194102213,232.6147178428364 37.13082513900008,232.5244759547495 36.386276186443865,232.5244759547495 36.35164600261487,231.66717539301317 36.265070542984176,231.14828064054018 36.35164600261487,230.58426263194997 36.47285164607456,229.86231658137694 36.54211201373255,228.39585329740657 36.55942710558884,228.23792565336043 36.35164600261487,228.12512009459897 36.55942710558884,227.08730509624002 36.55942710558884,226.47814957305673 36.62868747336324,225.86899165197974 36.74989311682293,225.25983133297996 36.49016673798906,224.94396948280337 36.317015818844084,224.56042208365398 35.78024796920363,223.22927961760433 35.1915348439361,222.14630780788139 34.758657546015456,221.76275347448245 33.91021804197226,220.65720919406158 33.165669089357834,219.6644688237866 32.784737067180686,219.5290946434543 32.490380504517816,219.7998428856663 31.88435228727758,219.7095935242105 31.7977768277633,218.82965949176287 30.9147071398329,218.03997084328148 30.395254382281564,217.8594700149115 29.58144506206736,216.9795254613855 29.14856776408851,216.57339551816403 28.230867892270908,215.30987332233053 27.746045318548568,214.52016671049932 27.451688755885698,214.3396617761755 26.256947413436137,214.27197237152723 25.287302265991457,214.38478802950704 24.36960239429027,214.74579758234904 23.365327062900178,214.92630204286252 22.94976485677762,215.30987332233053 22.3264215477393,216.34776731135207 21.73770842247177,217.114901872279 21.408721675979905,217.54359305858088 20.871953826455865,218.13022117849323 20.335185976931825,218.6942845810845 19.34822573751444,219.6644688237866 18.39589568192605,220.67977140116272 17.80718255660031,221.24382551010058 17.270414707192685,221.76275347448245 16.76827704149764,222.3268036358495 16.681701581925154,223.3195269263233 16.681701581925154,224.2671204899234 16.45660538697848,224.58298372170248 15.902522445539944,224.98909264369286 15.608165882877074,226.25253580784192 15.608165882877074,226.65864034839615 15.019452757609542,227.60621346546395 14.5,228.3732922152849 14.811671654577367,228.5989028886397 15.93715262931073,229.32085483318951 16.629756306181662,229.29829388593498 16.976058144529816,228.5989028886397 17.42625053442316,228.5086586587422 17.980333475919906,228.44097545184195 18.413210773840547,227.9897533156327 18.517101325385738,226.90681482086075 18.257374946551863,225.9366759838449 18.49978623347124,225.03421579151473 19.59063702437561,224.2671204899234 20.075459598156158,224.04150350111013 21.062419837573543,223.97381834035332 22.08401026087813,223.8384479298984 23.157545959868003,223.95125661346538 24.127191107312683,223.9286948832887 25.68554938014131,223.9286948832887 26.430098332697526,223.95125661346538 27.31316802056972,223.8384479298984 27.226592560997233,223.25184144970262 27.399743480142206,222.8231660771562 27.711415134719573,222.25911772507243 27.936511329724453,221.74019142524048 28.248182984243613,221.13101485279913 28.767635741794948,221.063328418968 29.079307396372315,221.10845271150174 30.25673364684917,221.08589056684286 31.174433518666774,220.65720919406158 31.849722103506792,220.02546605894167 31.91898247116478,219.59678174841974 31.901667379250284,219.19065867448808 31.67657118430361,218.671722084473 30.74155622057151,217.9722830573446 30.464514749939553,217.88203262997558 29.66802052158164,217.06977641514095 29.131252672115806,216.55083271232434 28.248182984243613,215.26474733880605 27.746045318548568,214.47504049669078 27.17464728525374,214.29453550974722 26.083796494291164,214.29453550974722 24.8717400598689,214.4524773848534 23.625053441675846,214.85861289482273 23.05365540832281,214.971428125049 22.63809320225846,215.82882118709676 22.2917913638521,216.34776731135207 22.04938007699093,216.61852112006454 21.148995297204237,217.88203262997558 20.17935014970135,218.87478443561122 19.625267208204605,219.39372034471307 19.244335186027456,219.77728055021726 18.20542967086658,220.74745800283563 17.616716545599047,221.3115118650603 17.218469431390986,221.8078775630711 16.802907225384843,222.25911772507243 16.681701581925154,223.07134670075902 16.69901667383965,223.8610096731718 16.612441214267164,224.4250521864451 16.075673364801332,224.83116152287403 15.867892261652742,225.12446204754815 15.625480974791571,226.43302684632363 15.244548952556215,227.35804011464643 14.6038905516034,228.05743671997334 14.534630183887202,228.44097545184195 15.625480974791571,229.09524521234562 15.97178281325614,229.27573293539172 16.47392047889298,229.36597671790514 16.958743052673526,228.64402498386335 17.755237280915026,228.4860975930933 18.13616930320859,228.44097545184195 18.43052586581325,227.9897533156327 18.49978623347124,226.79400829179212 18.37858059006976,226.3879041064065 18.30932022241177,225.62081551519805 18.465156049700454,225.079338926138 18.98460880719358,224.83116152287403 19.59063702437561,224.2445588058763 19.919623770925682,224.0189417841175 21.339461308321916,223.90613314986695 22.828559213434346,223.95125661346538 23.798204360879026,223.8610096731718 24.819794784125406,223.90613314986695 26.222317229607143,223.97381834035332 26.82834544684738,223.8384479298984 27.31316802056972,223.1615941015625 27.694100042746868,222.529861190691 28.04040188115323,222.03349780851568 28.057716973125935,221.62738112978695 28.230867892270908,221.22126338524686 29.131252672115806,221.15357699088054 30.23941855499288,221.08589056684286 30.810816588345915,220.81514457483718 31.468790081271436,220.34133794892114 31.832407011592295,219.8449675466254 31.901667379250284,219.2583459274756 31.780461735790595,218.78453453468683 30.983967507607304,218.0625334320357 30.377939290367067,217.8594700149115 29.58144506206736,217.04721368160972 28.975416844827123,216.21239022933878 28.230867892270908,215.30987332233053 27.815305686264765,214.65554527303902 27.053441641735844,214.36222490445653 26.031851218547672,214.3396617761755 25.58165882859612,214.27197237152723 24.54275331343524,214.7232345098746 23.503847798216157,214.90373899684346 22.741983753803652,215.761132433865 21.945489525503945,216.84414893214125 21.131680205231532,217.90459524178004 20.66417272342369,218.33328424028878 19.711842667893507,219.32603315084998 19.123129542625975,220.02546605894167" stroke="#4DD2FF" stroke-linecap="round" stroke-linejoin="round" stroke-width="0.5"><title>2024-11-02 10.1km</title><desc>9223370306347023807</desc></polyline><polyline fill="none" points="185.41336898400914,234.62874233438924 185.39604278071783,234.35784558820887 184.7376470588497,234.1772474941099 184.1658823529142,234.1546727175737 183.6287700535031,234.132097937676 183.3515508021228,234.0643735783815 182.97037433151854,234.1546727175737 182.74513368989574,234.132097937676 182.08673796791118,233.90634995812434 181.37636363634374,233.97407438654045 180.92588235298172,234.132097937676 179.99026737973327,234.132097937676 179.55711229948793,234.10952315448958 178.43090909090824,234.0643735783815 176.9062032085494,234.24497180407343 175.9012834224268,234.3126960844238 175.45080213894835,234.22239703737432 174.75775401078863,234.01922398903116 173.38898395723663,233.99664918944472 173.09443850262323,234.132097937676 172.31475935829803,233.86120032270264 171.65636363637168,233.68060164940835 171.3098395722336,233.83862550008052 170.72074866312323,234.1546727175737 170.04502673796378,234.1546727175737 169.2133689839975,233.8837751421088 168.416363636381,233.86120032270264 167.13422459893627,234.04179878537252 166.5451336898841,234.1772474941099 165.90406417113263,234.22239703737432 165.05508021393325,234.1546727175737 164.46598930482287,234.19982226740103 163.75561497325543,234.3126960844238 162.71604278078303,234.08694836808718 162.17893048125552,234.08694836808718 161.81508021388436,234.1546727175737 161.4339037433383,233.99664918944472 160.84481283428613,233.52257763753005 160.34235294122482,233.47742789024778 159.3374331551022,233.5903022338316 158.66171123005915,233.61287709267344 158.29786096262978,233.81605067415512 158.05529411771568,233.70317649509525 157.48352941172197,233.5451525062672 156.6691978609888,233.61287709267344 155.95882352942135,233.5903022338316 155.24844919791212,233.5903022338316 154.98855614976492,233.90634995812434 153.49850267381407,233.6580268004327 153.11732620326802,233.79347584486823 152.6148663102067,233.86120032270264 151.73122994654113,233.8837751421088 151.38470588240307,233.79347584486823 150.57037433149526,233.68060164940835 149.7213903743541,233.70317649509525 148.8550802139216,233.81605067415512 148.3526203208603,233.86120032270264 147.69422459893394,233.61287709267344 147.0011764705996,233.68060164940835 146.65465240646154,233.61287709267344 146.2041711229831,233.79347584486823 145.1819251337438,233.45485301167355 144.67946524056606,233.40970324461523 143.91711229947396,233.5451525062672 143.0334759358666,233.40970324461523 142.61764705885435,233.43227812982514 141.4048128342838,233.13880436595355 140.79839572194032,233.31940367104835 140.15732620318886,233.0710795721825 139.68951871665195,233.20652913002414 139.15240641712444,233.0936545067525 137.97422459896188,232.80018010114145 137.35048128344351,232.93562989593192 137.05593582888832,232.95820485019067 136.67475935828406,232.86790501329233 136.0683422459988,232.8453300458932 135.47925133694662,232.4841301192646 135.09807486634236,232.64215519084246 134.61294117645593,232.89047997744638 133.9198930481798,233.0936545067525 133.1402139037964,234.132097937676 132.74171122990083,234.71904114443169 132.37786096264608,235.1028105000296 131.84074866311857,234.53844347162521 131.44224598928122,234.5158687477524 131.14770053478424,234.2675465674838 130.81850267382106,234.132097937676 130.50663101614919,234.29012132757634 130.14278074871982,234.42556981917005 129.81358288769843,234.24497180407343 129.01657754014013,234.08694836808718 128.2888770052814,234.38042033513193 127.99433155078441,234.6738917460316 127.42256684496533,234.58359290959197 127.00673796795309,234.1546727175737 126.6775401069317,233.97407438654045 126.48695187165868,233.45485301167355 126.26171123003587,232.77760512383247 126.29636363638565,232.0326290262601 126.19240641716169,231.1973485337512 126.03647058823844,230.79099423260777 125.74192513368325,230.61039197874197 125.94983957224758,229.84283004992176 126.10577540111262,229.3913212556945 126.4349732620758,228.2173922295333 126.52160427806666,227.31436384579865 126.33101604279364,227.1563333372469 126.45229946525069,226.0952671742416 126.26171123003587,225.4179870983353 126.19240641716169,225.1470742385718 126.01914438506356,224.37948522850638 125.86320855614031,223.92796050393372 125.44737967918627,222.97975429664075 125.15283422463108,222.6862607223884 124.85828877007589,222.16700149749522 124.07860962575069,221.1736311716959 123.28160427813418,220.29313850970357 122.70983957219869,220.1802544729435 122.39796791446861,220.2028312869079 122.1380748663214,220.0899471843586 121.8781818181742,219.77387125937094 121.13315508025698,218.8482166245085 120.33614973264048,218.41925284417812 119.29657754010987,217.3129723471211 118.84609625668963,216.56792184388905 117.97978609625716,215.61967056379945 117.63326203206088,215.21327538018522 117.25208556151483,214.96492224288522 116.10855614976026,214.94234466522175 115.38085561501794,215.01007738843327 114.6878074866836,215.30358551323297 113.80417112307623,215.55193810725177 113.12844919791678,215.73255792546843 112.31411764706718,216.52276715278276 112.07155080221128,217.290395111806 111.56909090909176,217.89997930944082 110.78941176476656,218.4418299148674 110.3909090909292,218.98367862406303 109.64588235295378,219.88675559236435 109.2820320855244,220.2028312869079 108.67561497335555,220.63179012604814 108.10385026736185,220.9027108859009 107.53208556154277,221.5800107115938 107.30684491974534,221.89608294976642 106.70042780751828,222.79914293219917 106.70042780751828,224.24402794934576 106.54449197865324,224.7407040601538 106.05935828876682,225.1470742385718 105.60887700540479,226.00496333523188 105.41828877013177,227.0886059270124 104.7598930481472,228.0819383077178 104.63860962569015,228.465724111913 104.79454545455519,228.78178229523473 105.2970053476165,229.41389672666264 106.02470588235883,229.5945003759407 106.45786096266238,229.41389672666264 106.70042780751828,229.14299085772655 107.25486631022068,228.84950896489318 107.87860962568084,228.60117769803037 108.19048128341092,228.19481658411678 108.32909090910107,227.38209115725476 108.2597860962851,226.3210265412199 108.38106951874215,225.68889948415745 109.07411764707649,225.03419374043006 109.29935828881571,224.8535847722087 110.4082352941623,224.40206143014075 110.75475935830036,224.37948522850638 112.31411764706718,224.42463762850093 112.92053475941066,224.42463762850093 113.63090909091989,224.33433281522593 115.17294117651181,224.42463762850093 116.16053475940134,224.33433281522593 116.81893048126949,224.06341805949342 117.26941176480614,223.20551820598484 117.8931550802663,222.347613599326 118.1530481284135,221.82835323871404 119.26192513370188,221.60258732145303 119.64310160430614,221.5348574820382 120.40545454545645,221.19620784073777 121.23711229942273,220.7446738336148 121.6009625668521,220.27056170896685 121.72224598925095,219.81902500239084 121.25443850271404,218.89337063755374 120.21486631018342,218.14832773900707 119.12331550801173,216.99689075327478 118.72481283423258,216.4324577308289 117.8931550802663,215.48420562112005 117.46000000007916,214.94234466522175 116.76695187168662,215.01007738843327 116.17786096263444,214.91976708424045 115.1902673796867,215.07781008200254 114.72245989303337,215.37131807830883 114.30663101613754,215.37131807830883 113.66556149732787,215.4616281191702 112.74727272725431,215.9583324019186 112.38342245988315,216.5453444999148 111.96759358292911,217.22266338617192 111.7423529412481,217.53874451905722 111.43048128345981,218.01286500865535 110.9106951871654,218.32894452843175 110.56417112296913,218.7804855803115 110.26962566841394,219.02883259757073 109.64588235295378,219.81902500239084 108.95283422461944,220.45117602283426 107.93058823538013,221.2413611690572 107.04695187171455,222.12184843909927 106.78705882356735,222.64110781549243 106.70042780751828,222.9346014753246 106.6484491978772,223.36355274665402 106.59647058829432,224.51494238901068 106.26727272727294,225.10192204917257 105.79946524061961,225.53086731670192 105.43561497324845,226.90799935499672 104.91582887707045,227.83360580985027 104.69058823527303,228.1045139695634 104.5,228.60117769803037 105.26235294126673,229.3913212556945 106.14598930487409,229.63965125537652 106.47518716577906,229.3913212556945 106.75240641710116,229.1204153472063 107.27219251339557,228.9849622152542 108.03454545454588,228.35284603291075 108.2597860962851,228.0367869740876 108.2597860962851,227.17890913403244 108.15582887700293,226.23072283391957 108.39839572197525,225.68889948415745 108.8142245989875,225.21480249793967 109.54192513372982,224.65039943123702 109.97508021385875,224.4697900153551 110.47754010697827,224.51494238901068 111.06663101603044,224.4697900153551 112.0195721925702,224.4472138236015 113.40566844923887,224.31175660368172 114.35860962566221,224.35690902351053 115.15561497327872,224.40206143014075 116.36844919790747,224.19887549658597 116.87090909096878,224.0859943072719 117.28673796792282,223.61189241328975 117.3213903743308,223.2732473146316 117.49465240642894,223.04748350399313 117.84117647062521,222.5733784303302 117.92780748661608,222.0089657355711 118.9154010695056,221.71547032125818 119.83368983963737,221.51228086235642 120.64802139037056,221.2639378282911 121.20245989307296,220.8575574588467 121.47967914433684,220.36086889221042 121.6182887700852,219.68356373370625 121.6009625668521,219.3674869791721 121.41037433152087,219.0739865579235 120.44010695192264,218.2160590596759 119.95497326203622,217.74193919236131 119.08866310166195,216.92915889924916 118.56887700530933,216.11637433954456 117.97978609625716,215.4390506138734 117.63326203206088,215.03265495623054 117.0614973261836,214.89718949995586 116.36844919790747,214.91976708424045 115.17294117651181,215.03265495623054 114.11604278080631,215.37131807830883 113.24973262031563,215.61967056379945 112.72994652407942,216.2969934993307 112.10620320856106,217.49359011105844 111.75967914436478,217.87740215976373 111.4478074866347,218.2612132570939 110.63347593584331,219.0739865579235 110.1136898396071,219.59325615537819 109.69786096259486,219.9544861526374 109.10877005354268,220.49632956837013 108.60631016042316,220.65436687416513 108.22513368987711,221.10590114467777 107.30684491974534,222.0992719049391 106.68310160428518,222.82171936426312 106.59647058829432,223.386129096456 106.63112299470231,223.95053677140095" stroke="#4DD2FF" stroke-linecap="round" stroke-linejoin="round" stroke-width="0.5"><title>2024-10-06 10.1km</title><desc>9223370308679048707</desc></polyline></svg>