<?xml version="1.0" encoding="utf-8" ?>
<svg baseProfile="full" height="200mm" version="1.1" viewBox="0,0,200,200" width="200mm" xmlns="http://www.w3.org/2000/svg" xmlns:ev="http://www.w3.org/2001/xml-events" xmlns:xlink="http://www.w3.org/1999/xlink"><defs /><rect fill="#1a1a1a" height="200" width="200" x="0" y="0" /><text alignment-baseline="middle" fill="#e1ed5e" style="dominant-baseline: central; font-size:9.0px; font-family:Arial;" text-anchor="middle" x="100.0" y="100.0">2025</text><line stroke="#e1ed5e" stroke-width="0.3" x1="100.0" x2="100.0" y1="15.0" y2="10.0" /><path d="M 100.0 14.0 a86.0,86.0 0 0,1 42.46469731375804,11.215312516191453" fill="none" id="id13" stroke="none" /><text fill="#e1ed5e" style="font-size:6.75px; font-family:Arial;" text-anchor="middle"><textPath startOffset="22.20632615414155" xlink:href="#id13">January</textPath></text><path d="M 100.0 79.0 l 0.0 -35.7235025833558 a56.7235025833558,56.7235025833558 0 0,0 0.9764018523737122,0.008404199004446753 l -0.6149213731011839 35.718209760959915" fill="#a7ff21" stroke="none" /><path d="M 100.72285384407766 79.0124445844662 l 0.6594151330667112 -19.1456568440028 a40.15700927352776,40.15700927352776 0 0,0 0.6906224782362467,0.02973965667582622 l -0.9888784436922894 19.13146946080278" fill="#ff4a06" stroke="none" /><path d="M 106.0581310904928 79.89281104454417 l 4.561432287276356 -15.13958340249817 a36.81181994941143,36.81181994941143 0 0,0 0.6051418430322006,0.18802051630965752 l -4.821359503019275 15.058822751305991" fill="#ff0d01" stroke="none" /><path d="M 107.08798089147638 80.2323363322302 l 6.437302430767929 -17.952987081576612 a40.07219462296952,40.07219462296952 0 0,0 0.6472950791043994,0.23840424038203703 l -6.745379835644904 17.83951957338825" fill="#ff4906" stroke="none" /><path d="M 107.76421540070413 80.48803036053334 l 7.427443689990702 -18.665640801877245 a41.08912806252893,41.08912806252893 0 0,0 0.6549139974798515,0.2671558634831963 l -7.747641557058941 18.53502405221047" fill="#ff5b08" stroke="none" /><path d="M 108.76106565485865 80.91482961587045 l 9.321025293333063 -20.30499061257324 a43.34220571688574,43.34220571688574 0 0,0 0.6753578133761973,0.31708954893972885 l -9.66916131800886 20.141536080993504" fill="#ff830c" stroke="none" /><path d="M 109.73455568895987 81.39251694778311 l 7.199736636836186 -13.762207719689869 a36.53172781630211,36.53172781630211 0 0,0 0.5546820177670195,0.29629192403637467 l -7.4355637011315165 13.63623706915174" fill="#ff0701" stroke="none" /><line stroke="#e1ed5e" stroke-width="0.3" x1="143.23703022742887" x2="145.7803849466894" y1="26.81831364943548" y2="22.513508569990506" /><path d="M 143.74570117128098 25.957352633546492 a86.0,86.0 0 0,1 28.547481713284135,27.462654790039103" fill="none" id="id14" stroke="none" /><text fill="#e1ed5e" style="font-size:6.75px; font-family:Arial;" text-anchor="middle"><textPath startOffset="19.985693538727396" xlink:href="#id14">February</textPath></text><path d="M 112.19680574252982 82.90503203632743 l 10.882029240286462 -15.252185299120784 a39.73626741870338,39.73626741870338 0 0,0 0.5533836912961023,0.402056786031206 l -11.142958247936354 15.062609278272904" fill="#ff4306" stroke="none" /><path d="M 113.06298171725822 83.55741782278167 l 15.082270456664311 -18.984292925641927 a45.24620093982864,45.24620093982864 0 0,0 0.6056453958120932,0.48972312359928843 l -15.406819251040895 18.72186370477851" fill="#ffa30f" stroke="none" /><path d="M 114.68862486808459 84.99185889309783 l 14.816597939250109 -15.138897929081558 a42.18296025112025,42.18296025112025 0 0,0 0.514560202823898,0.5123505177862782 l -15.07499394224133 14.881611560645162" fill="#ff6e0a" stroke="none" /><path d="M 114.94478906791727 85.2469230424477 l 14.061076160067415 -13.880700339947209 a40.75823131524243,40.75823131524243 0 0,0 0.48858587477626436,0.5035306918678306 l -14.29792629854679 13.636605452529263" fill="#ff5507" stroke="none" /><path d="M 115.4437574822437 85.77008943001954 l 11.138230153864287 -10.26278864969084 a36.14546142673358,36.14546142673358 0 0,0 0.4176631465745088,0.4611940781975854 l -11.313236941054832 10.069541784223707" fill="#ff0000" stroke="none" /><path d="M 115.68641384162765 86.03803664274999 l 22.154540365582058 -19.719030997391894 a50.65912747007752,50.65912747007752 0 0,0 0.5741564058059708,0.6563600248066672 l -22.490688634965874 19.334755416382276" fill="#fffc17" stroke="none" /><path d="M 116.38621287248628 86.86637796730983 l 16.40625746134457 -13.149687859242897 a42.02568844731236,42.02568844731236 0 0,0 0.44756541578432363,0.5683626270665064 l -16.63017695772286 12.865332838223352" fill="#ff6c09" stroke="none" /><path d="M 116.82858285166822 87.43820079747576 l 16.899614983773738 -12.614821574538675 a42.08863935765502,42.08863935765502 0 0,0 0.4283769437695879,0.5843056698820256 l -17.11425454005695 12.322053460985156" fill="#ff6d0a" stroke="none" /><path d="M 117.04232023915458 87.72973835380427 l 13.484358942064471 -9.70857313021352 a37.61578551568171,37.61578551568171 0 0,0 0.3738066539660316,0.5287230025444006 l -13.649478215834387 9.475023627337325" fill="#ff1c02" stroke="none" /><path d="M 117.45458315368197 88.32363383020206 l 15.911970828748707 -10.644424804863968 a40.14404855513465,40.14404855513465 0 0,0 0.37927210969969277,0.5776574434364213 l -16.092839573806327 10.368949297449873" fill="#ff4a06" stroke="none" /><path d="M 117.65298651832404 88.62581576622439 l 38.85817196824681 -25.03712368985231 a67.22569730544696,67.22569730544696 0 0,0 0.6183880734540461,0.9781414259872413 l -39.28338763794681 24.364534616150863" fill="#32ff49" stroke="none" /><line stroke="#e1ed5e" stroke-width="0.3" x1="172.23445277983987" x2="176.4835382374775" y1="55.19839476539836" y2="52.563006222186495" /><path d="M 173.08426987136738 54.67131705675599 a86.0,86.0 0 0,1 12.851231095245387,41.99856678651699" fill="none" id="id15" stroke="none" /><text fill="#e1ed5e" style="font-size:6.75px; font-family:Arial;" text-anchor="middle"><textPath startOffset="22.20632615414155" xlink:href="#id15">March</textPath></text><path d="M 118.03404312379186 89.2402003453031 l 14.325089072767247 -8.546895856942738 a37.68105529431938,37.68105529431938 0 0,0 0.32753867141555504,0.5598697626694713 l -14.47008741865313 8.299046681919373" fill="#ff1d02" stroke="none" /><path d="M 118.3937258080291 89.86733742301442 l 18.29657097446641 -10.079142308363108 a41.88907894321628,41.88907894321628 0 0,0 0.3424769326546945,0.6345577429773797 l -18.467356006339568 9.76270358205327" fill="#ff6909" stroke="none" /><path d="M 118.56541770881063 90.18545643968196 l 18.51454831457001 -9.787651631814619 a41.94245983064813,41.94245983064813 0 0,0 0.331925770186403,0.6411749381494195 l -18.68028351791653 9.467503971404854" fill="#ff6a09" stroke="none" /><path d="M 118.89224826269711 90.83032412892265 l 17.702258065620985 -8.592093772577556 a40.67724614926106,40.67724614926106 0 0,0 0.3003177958345192,0.632545868614182 l -17.84753405529726 8.286105488322832" fill="#ff5407" stroke="none" /><path d="M 119.04729006885535 91.15688171328212 l 45.47227033916738 -21.111489556846724 a71.13404393331112,71.13404393331112 0 0,0 0.5060600642221031,1.1150362707098955 l -45.828932720352825 20.325631277294768" fill="#38ff83" stroke="none" /><path d="M 119.47837535516314 92.15188598940014 l 18.171641050179097 -7.321612204361772 a40.59118535790046,40.59118535790046 0 0,0 0.2555436439172342,0.6503307002916797 l -18.29497824397803 7.007732499174308" fill="#ff5207" stroke="none" /><path d="M 120.08093135843002 93.85539295169968 l 14.701185185847255 -4.4984470341014955 a36.37403237889108,36.37403237889108 0 0,0 0.17804933461038105,0.6002938432406599 l -14.776440417569338 4.244723804114305" fill="#ff0400" stroke="none" /><path d="M 120.28053869075195 94.5502522615342 l 19.038979052028655 -5.116118196544994 a40.71439546992514,40.71439546992514 0 0,0 0.17604840258820637,0.6783863098354522 l -19.124223786487164 4.787635461160692" fill="#ff5407" stroke="none" /><path d="M 120.67395015179393 96.31383870115 l 61.28428469463252 -10.926976064584204 a83.25080205466244,83.25080205466244 0 0,0 0.23939814109664082,1.4129413803041304 l -61.46329469724938 9.870448895964236" fill="#4cdbff" stroke="none" /><path d="M 120.83666639777658 97.38593545837742 l 16.116718175871785 -2.0219233108884502 a37.243053242404585,37.243053242404585 0 0,0 0.0743258673551295,0.6367786414564887 l -16.149134396230505 1.7442009311071087" fill="#ff1502" stroke="none" /><path d="M 120.96714384426684 98.82574320788733 l 19.707585785793878 -1.1037157295717848 a40.73846817552287,40.73846817552287 0 0,0 0.03318515221798716,0.7004861138749379 l -19.72366454624536 0.7643185090738471" fill="#ff5507" stroke="none" /><path d="M 120.98425023603335 99.18683210126433 l 17.99728934859018 -0.697419149977565 a39.010797244087584,39.010797244087584 0 0,0 0.020226737139166912,0.6712269341447342 l -18.006627780184992 0.3875220684078317" fill="#ff3505" stroke="none" /><line stroke="#e1ed5e" stroke-width="0.3" x1="184.98032266829074" x2="189.97916517819016" y1="98.17113171792111" y2="98.06355123074" /><path d="M 185.9800911702706 98.14961562048488 a86.0,86.0 0 0,1 -9.607161424134198,41.387399972396054" fill="none" id="id16" stroke="none" /><text fill="#e1ed5e" style="font-size:6.75px; font-family:Arial;" text-anchor="middle"><textPath startOffset="21.466115282336823" xlink:href="#id16">April</textPath></text><path d="M 120.99980553446 99.90962569577887 l 18.740122728073047 -0.08064958267299205 a39.740296268160364,39.740296268160364 0 0,0 -0.002944004124777636,0.6840828778246405 l -18.738734426658766 -0.24194277335533318" fill="#ff4306" stroke="none" /><path d="M 120.9904718944345 100.63252640178507 l 19.08035693387215 0.5749670410867201 a40.08901798999359,40.08901798999359 0 0,0 -0.02672194037855502,0.6895745448976437 l -19.06763286064239 -0.9033188329983701" fill="#ff4906" stroke="none" /><path d="M 120.89721153311464 102.0752229133903 l 16.620758626853412 1.6505445755630361 a37.702512228046494,37.702512228046494 0 0,0 -0.06969165487243874,0.6452581699496923 l -16.589884670479922 -1.9363990673975198" fill="#ff1d03" stroke="none" /><path d="M 120.8583938346157 102.4346265915055 l 19.391953162327937 2.263461185198337 a40.523603765361045,40.523603765361045 0 0,0 -0.08683338139618998,0.6921474858536895 l -19.3501182716849 -2.5969264253394213" fill="#ff5107" stroke="none" /><path d="M 120.76222939487914 103.15116336523771 l 20.81013514258143 3.158434204716098 a42.0484543679108,42.0484543679108 0 0,0 -0.1147687445803841,0.7146650820573736 l -20.752684643639757 -3.516178516466676" fill="#ff6c09" stroke="none" /><path d="M 120.64145759157962 103.86396538481128 l 35.5040112725049 6.6461522869814935 a57.120716447212175,57.120716447212175 0 0,0 -0.18923295579574456,0.9648947647472754 l -35.38434838373349 -7.256310778796713" fill="#a1ff22" stroke="none" /><path d="M 120.49622156327973 104.57218783832717 l 20.84934773462669 4.650961342069934 a42.36180569064357,42.36180569064357 0 0,0 -0.1648871439672901,0.7103295007135964 l -20.766200024728846 -5.009159500132095" fill="#ff720a" stroke="none" /><path d="M 120.41448212921028 104.9243191809786 l 20.538660702954125 4.954273158193551 a42.12774020090812,42.12774020090812 0 0,0 -0.17611137828365966,0.7034774132170301 l -20.450338010375404 -5.307078410807977" fill="#ff6d0a" stroke="none" /><path d="M 120.02730092923936 106.31721596034902 l 60.08190278771807 18.951647881047055 a84.0,84.0 0 0,0 -0.4468309959350121,1.375204400088819 l -59.746779540766816 -19.98305118111367" fill="#4dd2ff" stroke="none" /><path d="M 119.26925614724726 108.34839909993367 l 19.527835302230493 8.46042843662563 a42.28180445644361,42.28180445644361 0 0,0 -0.2950845427019432,0.6653377437486991 l -19.379309674797277 -8.795314516867016" fill="#ff700a" stroke="none" /><path d="M 118.81262510543309 109.33194174019688 l 13.570619125785791 6.731661655430575 a36.148497354534456,36.148497354534456 0 0,0 -0.2813064534716931,0.5550443202498063 l -13.45273400252783 -6.964260187383076" fill="#ff0000" stroke="none" /><line stroke="#e1ed5e" stroke-width="0.3" x1="174.80103733775053" x2="179.2010983576182" y1="140.37084112569926" y2="142.7455964860345" /><path d="M 175.68104954172406 140.8457921977663 a86.0,86.0 0 0,1 -30.038265399797805,32.042727171017184" fill="none" id="id17" stroke="none" /><text fill="#e1ed5e" style="font-size:6.75px; font-family:Arial;" text-anchor="middle"><textPath startOffset="22.206326154141568" xlink:href="#id17">May</textPath></text><path d="M 118.48025628344425 109.97397251340804 l 19.45934123976672 10.502394105234133 a43.112581111831844,43.112581111831844 0 0,0 -0.35808815215898765,0.6500340099034237 l -19.27567667815622 -10.835798633535362" fill="#ff7f0b" stroke="none" /><path d="M 118.30583269289576 110.29060199501025 l 21.159382131815914 11.89472140556337 a45.273521572202455,45.273521572202455 0 0,0 -0.38773107056727596,0.6760418034832448 l -20.951499065096257 -12.25718305490493" fill="#ffa40f" stroke="none" /><path d="M 118.12598468904814 110.60418214915192 l 17.981825896073005 10.519845428949695 a41.83298371346926,41.83298371346926 0 0,0 -0.3689651719209095,0.6184068509764812 l -17.798079848453867 -10.82781437381228" fill="#ff6809" stroke="none" /><path d="M 117.75023020441432 111.22182372390056 l 32.05993609829596 20.268523131892753 a58.92957332445083,58.92957332445083 0 0,0 -0.5494344695329991,0.8527344980545497 l -31.70629676538591 -20.817379229868756" fill="#87ff25" stroke="none" /><path d="M 117.14729908036423 112.12312394758627 l 15.934436325419275 11.265631147076 a40.51462800441787,40.51462800441787 0 0,0 -0.4075003875675409,0.5659823973402239 l -15.73815614547613 -11.538247149867356" fill="#ff5107" stroke="none" /><path d="M 116.71984013943494 112.70617746262583 l 26.428050978844592 20.083894518615313 a54.19344359320489,54.19344359320489 0 0,0 -0.5708200130616222,0.7378618141942589 l -26.0784241485649 -20.535834326922824" fill="#ccff1d" stroke="none" /><path d="M 115.80600337817218 113.82643327865902 l 15.766367414337905 13.791761388727208 a41.9473392975691,41.9473392975691 0 0,0 -0.48007960861758203,0.5393745295708416 l -15.526628956071985 -14.061110088038916" fill="#ff6a09" stroke="none" /><path d="M 115.32070863581623 114.36230785411682 l 16.402920454802036 15.376820934229954 a43.48338100664434,43.48338100664434 0 0,0 -0.5166104135738158,0.5416639532509303 l -16.135803489849255 -15.656892004063392" fill="#ff850c" stroke="none" /><path d="M 114.81725581225074 114.88116024355365 l 32.35693962482664 32.49648987972051 a66.85840595122615,66.85840595122615 0 0,0 -0.8225177315037028,0.8050067173108777 l -31.79277194094714 -33.048646699953956" fill="#31ff43" stroke="none" /><path d="M 114.0293411484842 115.62618273729858 l 11.966584056514845 13.328639401469552 a38.912335477989515,38.912335477989515 0 0,0 -0.502261242741588,0.4431871498061064 l -11.73538046086667 -13.532649693047947" fill="#ff3404" stroke="none" /><path d="M 113.48314897796784 116.09983520530334 l 13.593494231485394 16.231595256328735 a42.17186269525429,42.17186269525429 0 0,0 -0.5605441244360603,0.46128965276118 l -13.312079978504643 -16.463180027947097" fill="#ff6e0a" stroke="none" /><path d="M 112.92097659922987 116.55440617244103 l 13.216624382159065 16.93319127780862 a42.480505741484194,42.480505741484194 0 0,0 -0.5803065093475719,0.44495428582871377 l -12.923189144317998 -17.158184905464704" fill="#ff740a" stroke="none" /><path d="M 112.04921762599082 117.19931262002967 l 12.035487166397031 17.179713466433103 a41.976069844497815,41.976069844497815 0 0,0 -0.5953468292272701,0.409484977804738 l -11.737983452546878 -17.384339233602937" fill="#ff6b09" stroke="none" /><path d="M 111.7513745106137 117.40417183066458 l 14.356302173718731 21.26215530435814 a46.65507084943961,46.65507084943961 0 0,0 -0.6694453942388433,0.44367190355989683 l -13.988182080739923 -21.506125229009353" fill="#ffbb11" stroke="none" /><path d="M 111.1453310114006 117.79835938074945 l 9.538328443511821 15.232082147725633 a38.97209047527217,38.97209047527217 0 0,0 -0.5716292613573231,0.3511413804633052 l -9.274719982222189 -15.394011995017316" fill="#ff3505" stroke="none" /><line stroke="#e1ed5e" stroke-width="0.3" x1="143.8653032363475" x2="146.44561519142675" y1="172.8068346515853" y2="177.08958963109032" /><path d="M 144.38136562736335 173.6633856474863 a86.0,86.0 0 0,1 -40.68145358897372,12.25698825130547" fill="none" id="id18" stroke="none" /><text fill="#e1ed5e" style="font-size:6.75px; font-family:Arial;" text-anchor="middle"><textPath startOffset="21.466115282336833" xlink:href="#id18">June</textPath></text><path d="M 110.8373102113329 117.98757091392108 l 9.302768913871693 15.440567102997669 a39.0264422981095,39.0264422981095 0 0,0 -0.5783944153632676,0.34172561562247517 l -9.035606627480044 -15.598411290913894" fill="#ff3605" stroke="none" /><path d="M 110.5260780823613 118.17145234162733 l 10.830231231629755 18.696520122166525 a42.606799235637524,42.606799235637524 0 0,0 -0.6377857084411223,0.3621513704373877 l -10.506796756267434 -18.88017465839854" fill="#ff760a" stroke="none" /><path d="M 109.89434966115114 118.52300852407294 l 10.097079388750833 18.90253467799048 a42.4302783331288,42.4302783331288 0 0,0 -0.6471811504016225,0.3385745902199898 l -9.770207335822716 -19.073538687155185" fill="#ff730a" stroke="none" /><path d="M 108.92500713936063 119.00905698771935 l 11.42151443608273 24.326279566103448 a47.87413011693343,47.87413011693343 0 0,0 -0.7489611389622612,0.34381132467345016 l -11.001085301353049 -24.519277961110973" fill="#ffcf13" stroke="none" /><line stroke="#e1ed5e" stroke-width="0.3" x1="102.19456741930631" x2="102.32365962044197" y1="184.97166512339345" y2="189.96999836594603" /><path d="M 102.22038585953345 185.97133177190398 a86.0,86.0 0 0,1 -42.740103519485714,-10.115201625700543" fill="none" id="id19" stroke="none" /><text fill="#e1ed5e" style="font-size:6.75px; font-family:Arial;" text-anchor="middle"><textPath startOffset="22.20632615414155" xlink:href="#id19">July</textPath></text><line stroke="#e1ed5e" stroke-width="0.3" x1="58.666819895761336" x2="56.23545636021788" y1="174.27360380694188" y2="178.64263932499728" /><path d="M 58.180547188652646 175.14741091055294 a86.0,86.0 0 0,1 -31.652253787137756,-30.449443065178592" fill="none" id="id20" stroke="none" /><text fill="#e1ed5e" style="font-size:6.75px; font-family:Arial;" text-anchor="middle"><textPath startOffset="22.20632615414155" xlink:href="#id20">August</textPath></text><line stroke="#e1ed5e" stroke-width="0.3" x1="26.63291911575756" x2="22.317208475507996" y1="142.92168965132927" y2="145.44649492493687" /><path d="M 25.769776987707644 143.4266507060508 a86.0,86.0 0 0,1 -11.730757126820373,-40.83630448921669" fill="none" id="id21" stroke="none" /><text fill="#e1ed5e" style="font-size:6.75px; font-family:Arial;" text-anchor="middle"><textPath startOffset="21.46611528233685" xlink:href="#id21">September</textPath></text><line stroke="#e1ed5e" stroke-width="0.3" x1="15.007084014347285" x2="10.007500721073583" y1="101.09737516637583" y2="101.16192664675087" /><path d="M 14.007167355692545 101.11028546245083 a86.0,86.0 0 0,1 10.666146001902534,-42.60595125391555" fill="none" id="id22" stroke="none" /><text fill="#e1ed5e" style="font-size:6.75px; font-family:Arial;" text-anchor="middle"><textPath startOffset="22.20632615414155" xlink:href="#id22">October</textPath></text><line stroke="#e1ed5e" stroke-width="0.3" x1="26.266209847984243" x2="21.928928074336255" y1="57.711370442889674" y2="55.22380399835377" /><path d="M 25.398753493254645 57.213857153982495 a86.0,86.0 0 0,1 29.58750427330803,-30.492523968695096" fill="none" id="id23" stroke="none" /><text fill="#e1ed5e" style="font-size:6.75px; font-family:Arial;" text-anchor="middle"><textPath startOffset="21.46611528233685" xlink:href="#id23">November</textPath></text><line stroke="#e1ed5e" stroke-width="0.3" x1="56.762969772571076" x2="54.21961505331055" y1="26.818313649435495" y2="22.513508569990535" /><path d="M 56.25429882871897 25.957352633546506 a86.0,86.0 0 0,1 42.265352541879196,-11.944610805530505" fill="none" id="id24" stroke="none" /><text fill="#e1ed5e" style="font-size:6.75px; font-family:Arial;" text-anchor="middle"><textPath startOffset="22.20632615414155" xlink:href="#id24">December</textPath></text></svg>