<?xml version="1.0" encoding="utf-8" ?>
<svg baseProfile="full" height="200mm" version="1.1" viewBox="0,0,200,200" width="200mm" xmlns="http://www.w3.org/2000/svg" xmlns:ev="http://www.w3.org/2001/xml-events" xmlns:xlink="http://www.w3.org/1999/xlink"><defs /><rect fill="#1a1a1a" height="200" width="200" x="0" y="0" /><text alignment-baseline="middle" fill="#e1ed5e" style="dominant-baseline: central; font-size:9.0px; font-family:Arial;" text-anchor="middle" x="100.0" y="100.0">2024</text><line stroke="#e1ed5e" stroke-width="0.3" x1="100.0" x2="100.0" y1="15.0" y2="10.0" /><path d="M 100.0 14.0 a86.0,86.0 0 0,1 42.35913384403234,11.155469271406648" fill="none" id="id1" stroke="none" /><text fill="#e1ed5e" style="font-size:6.75px; font-family:Arial;" text-anchor="middle"><textPath startOffset="22.145653131862478" xlink:href="#id1">January</textPath></text><line stroke="#e1ed5e" stroke-width="0.3" x1="143.13028292997686" x2="145.6673583964461" y1="26.7553504044142" y2="22.446841604673864" /><path d="M 143.63769802327073 25.89364864446614 a86.0,86.0 0 0,1 29.32050498858742,28.57503671076993" fill="none" id="id2" stroke="none" /><text fill="#e1ed5e" style="font-size:6.75px; font-family:Arial;" text-anchor="middle"><textPath startOffset="20.669276256404974" xlink:href="#id2">February</textPath></text><line stroke="#e1ed5e" stroke-width="0.3" x1="172.87174338648825" x2="177.1583165268699" y1="56.24261187166439" y2="53.66864786411523" /><path d="M 173.72905801456457 55.72781907015455 a86.0,86.0 0 0,1 12.242430191666344,42.057860355516425" fill="none" id="id3" stroke="none" /><text fill="#e1ed5e" style="font-size:6.75px; font-family:Arial;" text-anchor="middle"><textPath startOffset="22.145653131862474" xlink:href="#id3">March</textPath></text><line stroke="#e1ed5e" stroke-width="0.3" x1="184.99686870605535" x2="189.99668451229388" y1="99.2704041080226" y2="99.22748670261217" /><path d="M 185.99683186730306 99.26182062694052 a86.0,86.0 0 0,1 -10.086455211305974,41.156179273409016" fill="none" id="id4" stroke="none" /><text fill="#e1ed5e" style="font-size:6.75px; font-family:Arial;" text-anchor="middle"><textPath startOffset="21.40746469413373" xlink:href="#id4">April</textPath></text><line stroke="#e1ed5e" stroke-width="0.3" x1="174.33088141563837" x2="178.70328620479359" y1="141.23008692659167" y2="143.65538615756765" /><path d="M 175.20536237346943 141.71514677278685 a86.0,86.0 0 0,1 -30.301960400862466,31.631185727798858" fill="none" id="id5" stroke="none" /><text fill="#e1ed5e" style="font-size:6.75px; font-family:Arial;" text-anchor="middle"><textPath startOffset="22.145653131862474" xlink:href="#id5">May</textPath></text><line stroke="#e1ed5e" stroke-width="0.3" x1="143.1302829299769" x2="145.66735839644613" y1="173.24464959558577" y2="177.55315839532614" /><path d="M 143.63769802327073 174.10635135553383 a86.0,86.0 0 0,1 -40.68552437913181,11.842963189579606" fill="none" id="id6" stroke="none" /><text fill="#e1ed5e" style="font-size:6.75px; font-family:Arial;" text-anchor="middle"><textPath startOffset="21.407464694133747" xlink:href="#id6">June</textPath></text><line stroke="#e1ed5e" stroke-width="0.3" x1="101.45913802915013" x2="101.54496967792366" y1="184.9874750549273" y2="189.98673829345242" /><path d="M 101.47630435890484 185.9873277026323 a86.0,86.0 0 0,1 -42.54439059252881,-10.42667462771756" fill="none" id="id7" stroke="none" /><text fill="#e1ed5e" style="font-size:6.75px; font-family:Arial;" text-anchor="middle"><textPath startOffset="22.145653131862474" xlink:href="#id7">July</textPath></text><line stroke="#e1ed5e" stroke-width="0.3" x1="58.13341422392154" x2="55.67067388415222" y1="173.97424548756322" y2="178.32567169271397" /><path d="M 57.64086615596768 174.84453072859336 a86.0,86.0 0 0,1 -31.369924170532247,-30.572349798747897" fill="none" id="id8" stroke="none" /><text fill="#e1ed5e" style="font-size:6.75px; font-family:Arial;" text-anchor="middle"><textPath startOffset="22.145653131862474" xlink:href="#id8">August</textPath></text><line stroke="#e1ed5e" stroke-width="0.3" x1="26.387840678322732" x2="22.057713659400548" y1="142.50000000000003" y2="145.00000000000006" /><path d="M 25.521815274538298 143.00000000000003 a86.0,86.0 0 0,1 -11.493303480769221,-40.785679425670985" fill="none" id="id9" stroke="none" /><text fill="#e1ed5e" style="font-size:6.75px; font-family:Arial;" text-anchor="middle"><textPath startOffset="21.40746469413373" xlink:href="#id9">September</textPath></text><path d="M 81.81346652052679 110.50000000000001 l -20.862018453344266 12.044691969877267 a45.08938393975451,45.08938393975451 0 0,0 -0.3812557228305389,-0.6736423310237798 l 21.065707541196183 -11.684792868754366" fill="red" stroke="none" /><path d="M 81.4637452351635 109.86951160357371 l -10.747320914918765 5.722343041936329 a33.1758004557338,33.1758004557338 0 0,0 -0.2633399162508584,-0.5049890120805074 l 10.843968900144572 -5.537007786751318" fill="red" stroke="none" /><path d="M 80.68587082218212 108.24405325689762 l -16.610950111106384 7.0902268542817195 a39.060868762018146,39.060868762018146 0 0,0 -0.25793966605924,-0.6189612989038201 l 16.73021562170211 -6.8040330459366185" fill="red" stroke="none" /><path d="M 79.48165901384964 104.47187691870673 l -19.981536021891717 4.354882775216486 a41.450593775732614,41.450593775732614 0 0,0 -0.14555531774817979,-0.6965348870432123 l 20.053349050464263 -4.011231436887864" fill="red" stroke="none" /><path d="M 79.2786578344484 103.40968896794605 l -31.383557682049933 5.164152473736996 a52.80559956288451,52.80559956288451 0 0,0 -0.13950361288061833,-0.8957132678330915 l 31.46758278706882 -4.624651023972454" fill="red" stroke="none" /><path d="M 79.13060592940153 102.33845913500099 l -23.80917088623511 2.6678672589807144 a44.958174680085435,44.958174680085435 0 0,0 -0.07935676065629073,-0.7677046726996501 l 23.851460039373066 -2.258758063998133" fill="red" stroke="none" /><line stroke="#e1ed5e" stroke-width="0.3" x1="15.003131293944662" x2="10.003315487706104" y1="100.72959589197737" y2="100.7725132973878" /><path d="M 14.003168132696942 100.73817937305945 a86.0,86.0 0 0,1 10.791469493833604,-42.45332614584628" fill="none" id="id10" stroke="none" /><text fill="#e1ed5e" style="font-size:6.75px; font-family:Arial;" text-anchor="middle"><textPath startOffset="22.145653131862435" xlink:href="#id10">October</textPath></text><path d="M 79.00077361379809 99.81974689727619 l -36.61409651371897 -0.3142879827403351 a57.615445381041354,57.615445381041354 0 0,0 0.016978910700661706,-0.9889364274006177 l 36.60330617141964 0.9427713261100051" fill="red" stroke="none" /><path d="M 79.01933749520258 99.09900007780938 l -36.027254699774176 -1.5471653325444739 a57.060460365456066,57.060460365456066 0 0,0 0.05042625948853476,-0.9782559625940168 l 35.99538685082907 2.1653930885152026" fill="red" stroke="none" /><path d="M 79.06263194458094 98.37931529534042 l -59.529006114507844 -4.607921561010111 a80.70708090414013,80.70708090414013 0 0,0 0.11877921397081549,-1.3803945137388216 l 59.441133277839285 5.629137122124614" fill="red" stroke="none" /><path d="M 79.34024301695615 96.23510406497455 l -19.983805035409315 -3.641714973022338 a41.31291588221607,41.31291588221607 0 0,0 0.13313324735165866,-0.6966094068993881 l 19.918345495775498 3.984226944955041" fill="red" stroke="none" /><path d="M 79.48165901384962 95.52812308129327 l -19.37715523209686 -4.223160795071121 a40.832025413199844,40.832025413199844 0 0,0 0.1551405775511846,-0.6835780100481403 l 19.301803792988014 4.55517313905827" fill="red" stroke="none" /><path d="M 79.64726062577567 94.8264132398404 l -24.375307543727725 -6.196107858716893 a46.1504944374492,46.1504944374492 0 0,0 0.20176670740099206,-0.7661410520823881 l 24.265351355522007 6.613629415172066" fill="red" stroke="none" /><path d="M 79.73907114497095 94.47779374421319 l -30.99689091419592 -8.448340455715432 a53.12758476453279,53.12758476453279 0 0,0 0.24737596908149892,-0.8778500445458991 l 30.84729645303984 8.979198424164345" fill="red" stroke="none" /><path d="M 80.05021161711548 93.44210830539832 l -37.015319047807125 -12.167670588671575 a59.96390703927644,59.96390703927644 0 0,0 0.3298431163102816,-0.9751225640904732 l 36.80099050992448 12.80129482723621" fill="red" stroke="none" /><path d="M 80.28708602549916 92.7611449362534 l -20.59811410370943 -7.563912812491384 a42.94299618703892,42.94299618703892 0 0,0 0.2600491171459535,-0.6898111789233389 l 20.465234302749042 7.916392271608868" fill="red" stroke="none" /><path d="M 80.5471966667186 92.08871423366112 l -20.392646547987955 -8.293511819813496 a43.0145945121992,43.0145945121992 0 0,0 0.28404821745643094,-0.6816123177726721 l 20.247272485995044 8.642356647027432" fill="red" stroke="none" /><path d="M 80.9802524753101 91.09779779509293 l -34.8986588584071 -16.33433448232256 a59.53215375625749,59.53215375625749 0 0,0 0.4411637115616105,-0.9218624822225664 l 34.61311588888559 16.931009466610213" fill="red" stroke="none" /><path d="M 81.1358732173502 90.77261029715801 l -21.528096969378552 -10.530471014419447 a44.965595734479336,44.965595734479336 0 0,0 0.3451218391890007,-0.6904748663327543 l 21.34415521697781 10.898477736915972" fill="red" stroke="none" /><path d="M 81.46374523516351 90.13048839642627 l -55.60876429450947 -29.60853481072118 a84.0,84.0 0 0,0 0.6886186015385976,-1.2669806661015215 l 55.092300343355525 30.558770310297323" fill="red" stroke="none" /><line stroke="#e1ed5e" stroke-width="0.3" x1="26.387840678322718" x2="22.05771365940052" y1="57.49999999999999" y2="54.99999999999999" /><path d="M 25.521815274538284 56.99999999999999 a86.0,86.0 0 0,1 29.574782752854787,-30.34633250058573" fill="none" id="id11" stroke="none" /><text fill="#e1ed5e" style="font-size:6.75px; font-family:Arial;" text-anchor="middle"><textPath startOffset="21.40746469413373" xlink:href="#id11">November</textPath></text><path d="M 81.99639281039701 89.18935116829357 l -51.130394796383015 -30.70233297966082 a80.6401754057444,80.6401754057444 0 0,0 0.7228125887284487,-1.1806600422129938 l 50.59581424319917 31.575530137998356" fill="red" stroke="none" /><path d="M 82.37810715431573 88.57770195909679 l -15.972582570820094 -10.353235047137682 a40.0345178537032,40.0345178537032 0 0,0 0.3787562046248845,-0.5734851681613348 l 15.79250192727448 10.625900093638078" fill="red" stroke="none" /><path d="M 82.576782715395 88.27688183743585 l -20.618343634544047 -13.872941764761565 a45.85104841733259,45.85104841733259 0 0,0 0.44499591643954123,-0.6492623409493701 l 20.377157981289194 14.22483884078097" fill="red" stroke="none" /><path d="M 82.78059297857968 87.97951657250589 l -24.646890895332994 -17.205444018952566 a51.05821908722736,51.05821908722736 0 0,0 0.5078710030128845,-0.7143841681658117 l 24.34790479379014 17.626005413827897" fill="red" stroke="none" /><path d="M 84.10781606972428 86.27271002978789 l -16.468928302062857 -14.225468022073649 a42.76211248628053,42.76211248628053 0 0,0 0.4846147454044233,-0.5514026207684222 l 16.222302492699843 14.50608292065337" fill="red" stroke="none" /><path d="M 84.58840730492382 85.73525988315684 l -24.33816470849893 -22.527041906485127 a54.16344189668135,54.16344189668135 0 0,0 0.6374370804537717,-0.6769360897420612 l 23.947871794308885 22.941519456171697" fill="red" stroke="none" /><path d="M 84.83555147118756 85.47280134310135 l -26.666587498425706 -25.545987600878316 a57.92836811064663,57.92836811064663 0 0,0 0.6940734287825544,-0.7121804824626803 l 26.22412726849235 25.999990775408726" fill="red" stroke="none" /><path d="M 85.08716467003674 85.21462403516908 l -32.57335463560971 -32.294951568035884 a66.86924164403615,66.86924164403615 0 0,0 0.8151936264597289,-0.808226201433601 l 32.01416908902001 32.84935777969816" fill="red" stroke="none" /><path d="M 85.86807049272753 84.46653392183569 l -26.322957506933125 -28.933541403563304 a60.115826848777196,60.115826848777196 0 0,0 0.7692964340807503,-0.6879096150722201 l 25.822396046028985 29.381146548518924" fill="red" stroke="none" /><path d="M 86.40962598614128 83.9905735841838 l -12.825268075592149 -15.108133544369693 a40.817749630200495,40.817749630200495 0 0,0 0.538066700923464,-0.4488743789157188 l 12.564027040506776 15.326070107197292" fill="red" stroke="none" /><path d="M 86.68645165197937 83.75963576809568 l -19.73630437377078 -24.075082257797725 a52.13087367957813,52.13087367957813 0 0,0 0.6969382202975984,-0.5614040966036851 l 19.320115383117937 24.41033464819481" fill="red" stroke="none" /><path d="M 87.25179093698888 83.31218511350988 l -25.475222191424034 -33.34788361419253 a62.96508414441885,62.96508414441885 0 0,0 0.8645616102869598,-0.6487831502653992 l 24.899007592226322 33.78028579172193" fill="red" stroke="none" /><path d="M 87.83215693770416 82.88440491214696 l -24.20803903987126 -34.05163856536442 a62.779698935513466,62.779698935513466 0 0,0 0.8837136752367102,-0.6169007779779321 l 23.619930273460785 34.46218415914748" fill="red" stroke="none" /><path d="M 88.4268655584334 82.4767994020092 l -18.247755714007777 -27.62942791809536 a54.11141609293282,54.11141609293282 0 0,0 0.7794990870014553,-0.5052618905535531 l 17.770770994749295 27.938603650352817" fill="red" stroke="none" /><path d="M 89.03521579738668 82.08984904055464 l -31.55923934062124 -51.549645693991614 a81.44296120256422,81.44296120256422 0 0,0 1.1986357865083979,-0.7197463501948522 l 30.66967079755541 52.083806044722394" fill="red" stroke="none" /><line stroke="#e1ed5e" stroke-width="0.3" x1="56.869717070023135" x2="54.33264160355391" y1="26.7553504044142" y2="22.446841604673864" /><path d="M 56.362301976729285 25.89364864446614 a86.0,86.0 0 0,1 42.16139366436587,-11.88097634709845" fill="none" id="id12" stroke="none" /><text fill="#e1ed5e" style="font-size:6.75px; font-family:Arial;" text-anchor="middle"><textPath startOffset="22.145653131862474" xlink:href="#id12">December</textPath></text><path d="M 89.34428304082924 81.90426304109057 l -15.411838401240875 -26.17267095500796 a51.37323604466735,51.37323604466735 0 0,0 0.7637672020728931,-0.44096119971498976 l 14.960278731307582 26.433379051999122" fill="red" stroke="none" /><path d="M 90.28995756902619 81.37971332152246 l -14.884577514751031 -28.543139989645653 a53.19101564506999,53.19101564506999 0 0,0 0.813247008239949,-0.41524971702167196 l 14.3924032847975 28.794447658340157" fill="red" stroke="none" /><path d="M 91.26138138417902 80.90454125486306 l -12.709579001028782 -27.77272383106551 a51.54271741970622,51.54271741970622 0 0,0 0.8077151182488352,-0.36128069867116747 l 12.230950479924328 27.98680828064652" fill="red" stroke="none" /><path d="M 93.27111125876988 80.10723608172694 l -12.252992750487447 -36.22379585268608 a59.2400211469682,59.2400211469682 0 0,0 0.9661123935286864,-0.3175803331833345 l 11.629357619311 36.42879710727144" fill="red" stroke="none" /><path d="M 93.61358852112211 79.99465700312896 l -9.743130759292262 -30.52021833351289 a53.03767039155568,53.03767039155568 0 0,0 0.8697151719047588,-0.26943998343608533 l 9.217774954515887 30.682974904755618" fill="red" stroke="none" /><path d="M 93.95794788825049 79.88797359093562 l -7.29677174909247 -24.28858000633326 a46.360954175314575,46.360954175314575 0 0,0 0.7641609573437843,-0.22243611768165852 l 6.878750779367062 24.41025981831744" fill="red" stroke="none" /><path d="M 94.6519064749342 79.69241777938228 l -8.289571945389044 -31.47685489524842 a53.5501059465911,53.5501059465911 0 0,0 0.890958264998054,-0.22647810689731393 l 7.748008387165612 31.614518233980995" fill="red" stroke="none" /><path d="M 95.35216902796891 79.52079915486377 l -8.736578629347285 -38.494977447844064 a60.4739293060216,60.4739293060216 0 0,0 1.0143424150618727,-0.22107120827372062 l 8.074473797666295 38.639280114251505" fill="red" stroke="none" /><path d="M 96.05791012581881 79.37332000966035 l -7.873708465382199 -41.19856980338401 a62.944218181319535,62.944218181319535 0 0,0 1.0630537101285362,-0.19372379816769003 l 7.165320021702625 41.32766177548306" fill="red" stroke="none" /><path d="M 96.41257539226777 79.30868818359171 l -6.195787727384191 -35.73565714503541 a57.268787919509045,57.268787919509045 0 0,0 0.9700855350405607,-0.1596272056300853 l 5.581424689290558 35.836750349161164" fill="red" stroke="none" /><path d="M 97.12497278360702 79.19773525538626 l -5.080912265639664 -36.76295010055454 a58.112399134884704,58.112399134884704 0 0,0 0.9893557863740722,-0.12809191413901796 l 4.449078657374797 36.84475361089395" fill="red" stroke="none" /><path d="M 97.48249496171623 79.15144685158666 l -4.818441598535943 -39.903608625183054 a61.193474106504965,61.193474106504965 0 0,0 1.0439726108896112,-0.11697930856866728 l 4.1327330860455325 39.980443694258696" fill="red" stroke="none" /><path d="M 98.5590905019552 79.04949213459386 l -2.602314145368161 -37.83707654420488 a58.92646042439503,58.92646042439503 0 0,0 1.0097628377409633,-0.060744824856170984 l 1.9524069554947139 37.87617334688575" fill="red" stroke="none" /><path d="M 99.27912038922189 79.0123766808444 l -1.3036565185645699 -37.9545371239756 a58.9769194197428,58.9769194197428 0 0,0 1.0121188826665664,-0.026068592184650796 l 0.6519243218272596 37.97132343351029" fill="red" stroke="none" /></svg>