<?xml version="1.0" encoding="utf-8" ?>
<svg baseProfile="full" height="200mm" version="1.1" viewBox="0,0,200,200" width="200mm" xmlns="http://www.w3.org/2000/svg" xmlns:ev="http://www.w3.org/2001/xml-events" xmlns:xlink="http://www.w3.org/1999/xlink"><defs /><rect fill="#1a1a1a" height="200" width="200" x="0" y="0" /><text alignment-baseline="middle" fill="#e1ed5e" style="dominant-baseline: central; font-size:9.0px; font-family:Arial;" text-anchor="middle" x="100.0" y="100.0">2025</text><line stroke="#e1ed5e" stroke-width="0.3" x1="100.0" x2="100.0" y1="15.0" y2="10.0" /><path d="M 100.0 14.0 a86.0,86.0 0 0,1 42.46469731375804,11.215312516191453" fill="none" id="id13" stroke="none" /><text fill="#e1ed5e" style="font-size:6.75px; font-family:Arial;" text-anchor="middle"><textPath startOffset="22.20632615414155" xlink:href="#id13">January</textPath></text><path d="M 100.0 79.0 l 0.0 -48.6867866563523 a69.6867866563523,69.6867866563523 0 0,0 1.1995434780714602,0.010324849425152707 l -0.8380629987989318 48.6795731835357" fill="red" stroke="none" /><path d="M 100.72285384407766 79.0124445844662 l 0.8987025789724021 -26.093200351356252 a47.10867233126705,47.10867233126705 0 0,0 0.8101775660192446,0.03488795024656974 l -1.3477209773809782 26.07386467458549" fill="red" stroke="none" /><path d="M 106.0581310904928 79.89281104454417 l 6.216677104934628 -20.633409768920785 a42.549586374666546,42.549586374666546 0 0,0 0.6994637905544577,0.21732680454053685 l -6.570926268199804 20.52334282949773" fill="red" stroke="none" /><path d="M 107.08798089147638 80.2323363322302 l 8.773259826858078 -24.467736606886227 a46.99308028405872,46.99308028405872 0 0,0 0.7590896856543329,0.2795791374478727 l -9.193131838284987 24.31309420163203" fill="red" stroke="none" /><path d="M 107.76421540070413 80.48803036053334 l 10.122701868129015 -25.438996901398855 a48.37903680665927,48.37903680665927 0 0,0 0.7711068568079033,0.31455384823205984 l -10.559092594525305 25.260982166983215" fill="red" stroke="none" /><path d="M 108.76106565485865 80.91482961587045 l 12.703423154436399 -27.673231193018246 a51.44970746169672,51.44970746169672 0 0,0 0.8016888239870867,0.3764036523354546 l -13.177890189723083 27.450462558042787" fill="red" stroke="none" /><path d="M 109.73455568895987 81.39251694778311 l 9.812364865445357 -18.756214332721328 a42.16785488299671,42.16785488299671 0 0,0 0.6402585431770877,0.3420039402076774 l -10.133768455150756 18.584531666011898" fill="red" stroke="none" /><line stroke="#e1ed5e" stroke-width="0.3" x1="143.23703022742887" x2="145.7803849466894" y1="26.81831364943548" y2="22.513508569990506" /><path d="M 143.74570117128098 25.957352633546492 a86.0,86.0 0 0,1 28.547481713284135,27.462654790039103" fill="none" id="id14" stroke="none" /><text fill="#e1ed5e" style="font-size:6.75px; font-family:Arial;" text-anchor="middle"><textPath startOffset="19.985693538727396" xlink:href="#id14">February</textPath></text><path d="M 112.19680574252982 82.90503203632743 l 14.83088156805942 -20.78687245095131 a46.535252385240355,46.535252385240355 0 0,0 0.6480691673677175,0.47084981118166797 l -15.186496051780926 20.528503404952968" fill="red" stroke="none" /><path d="M 113.06298171725822 83.55741782278167 l 20.555299198437133 -25.873280967781326 a54.04462124423619,54.04462124423619 0 0,0 0.723417112267814,0.5849529944992559 l -20.99761970926944 25.51562187601794" fill="red" stroke="none" /><path d="M 114.68862486808459 84.99185889309783 l 20.193219888167384 -20.632475552072506 a49.869796966011876,49.869796966011876 0 0,0 0.6083265064579294,0.605714159113672 l -20.545382194792637 20.281825542308717" fill="red" stroke="none" /><path d="M 114.94478906791727 85.2469230424477 l 19.16353564621867 -18.91770535419549 a47.92806480852366,47.92806480852366 0 0,0 0.5745336516123243,0.5921074309202662 l -19.486333561534103 18.58503372772511" fill="red" stroke="none" /><path d="M 115.4437574822437 85.77008943001954 l 15.180052234945197 -13.986932001441911 a41.64142080062864,41.64142080062864 0 0,0 0.4811693129074396,0.531319173222108 l -15.418565188468673 13.723560040950254" fill="red" stroke="none" /><path d="M 115.68641384162765 86.03803664274999 l 30.19394242576854 -26.874639545768495 a61.421781379914584,61.421781379914584 0 0,0 0.6961373200934425,0.7958052963703903 l -30.65207160943983 26.35091869319516" fill="red" stroke="none" /><path d="M 116.38621287248628 86.86637796730983 l 22.359732363472975 -17.921424303418462 a49.65545463658357,49.65545463658357 0 0,0 0.5288209431296877,0.6715488951671238 l -22.664907387196628 17.5338830142983" fill="red" stroke="none" /><path d="M 116.82858285166822 87.43820079747576 l 23.03211862749533 -17.19246664781604 a49.741249066581716,49.741249066581716 0 0,0 0.5062649821809617,0.6905448667428014 l -23.32464622218992 16.793459337401746" fill="red" stroke="none" /><path d="M 117.04232023915458 87.72973835380427 l 18.37754026157135 -13.231603693545143 a43.645293603058306,43.645293603058306 0 0,0 0.4337248561863136,0.6134730503267201 l -18.602577737561546 12.91330414288663" fill="red" stroke="none" /><path d="M 117.45458315368197 88.32363383020206 l 21.686079835361305 -14.507055637804532 a47.091008449349374,47.091008449349374 0 0,0 0.4449054533685382,0.6776215286889574 l -21.932581924087767 14.1316160451379" fill="red" stroke="none" /><path d="M 117.65298651832404 88.62581576622439 l 52.95895955497212 -34.12255270132683 a84.0,84.0 0 0,0 0.7726896150161773,1.2222094091431752 l -53.538476766234254 33.20589564446945" fill="red" stroke="none" /><line stroke="#e1ed5e" stroke-width="0.3" x1="172.23445277983987" x2="176.4835382374775" y1="55.19839476539836" y2="52.563006222186495" /><path d="M 173.08426987136738 54.67131705675599 a86.0,86.0 0 0,1 12.851231095245387,41.99856678651699" fill="none" id="id15" stroke="none" /><text fill="#e1ed5e" style="font-size:6.75px; font-family:Arial;" text-anchor="middle"><textPath startOffset="22.20632615414155" xlink:href="#id15">March</textPath></text><path d="M 118.03404312379186 89.2402003453031 l 19.52335311722802 -11.648378940168945 a43.734248368348325,43.734248368348325 0 0,0 0.3801554254263743,0.6498088512453686 l -19.72096821712472 11.310590676569682" fill="red" stroke="none" /><path d="M 118.3937258080291 89.86733742301442 l 24.935999640519395 -13.73664438701832 a49.46927250716789,49.46927250716789 0 0,0 0.40445111557311403,0.749386491678042 l -25.168758855310973 13.305376912007818" fill="red" stroke="none" /><path d="M 118.56541770881063 90.18545643968196 l 25.23307622837021 -13.339378067784427 a49.542024160560686,49.542024160560686 0 0,0 0.39206747988756147,0.7573495785703344 l -25.458953141417886 12.903055766953749" fill="red" stroke="none" /><path d="M 118.89224826269711 90.83032412892265 l 24.126023470557982 -11.709978198827566 a47.81769188276522,47.81769188276522 0 0,0 0.35303530075344347,0.7435823786133691 l -24.32401696515318 11.292953404573657" fill="red" stroke="none" /><line stroke="#e1ed5e" stroke-width="0.3" x1="184.98032266829074" x2="189.97916517819016" y1="98.17113171792111" y2="98.06355123074" /><path d="M 185.9800911702706 98.14961562048488 a86.0,86.0 0 0,1 -9.607161424134198,41.387399972396054" fill="none" id="id16" stroke="none" /><text fill="#e1ed5e" style="font-size:6.75px; font-family:Arial;" text-anchor="middle"><textPath startOffset="21.466115282336823" xlink:href="#id16">April</textPath></text><line stroke="#e1ed5e" stroke-width="0.3" x1="174.80103733775053" x2="179.2010983576182" y1="140.37084112569926" y2="142.7455964860345" /><path d="M 175.68104954172406 140.8457921977663 a86.0,86.0 0 0,1 -30.038265399797805,32.042727171017184" fill="none" id="id17" stroke="none" /><text fill="#e1ed5e" style="font-size:6.75px; font-family:Arial;" text-anchor="middle"><textPath startOffset="22.206326154141568" xlink:href="#id17">May</textPath></text><line stroke="#e1ed5e" stroke-width="0.3" x1="143.8653032363475" x2="146.44561519142675" y1="172.8068346515853" y2="177.08958963109032" /><path d="M 144.38136562736335 173.6633856474863 a86.0,86.0 0 0,1 -40.68145358897372,12.25698825130547" fill="none" id="id18" stroke="none" /><text fill="#e1ed5e" style="font-size:6.75px; font-family:Arial;" text-anchor="middle"><textPath startOffset="21.466115282336833" xlink:href="#id18">June</textPath></text><line stroke="#e1ed5e" stroke-width="0.3" x1="102.19456741930631" x2="102.32365962044197" y1="184.97166512339345" y2="189.96999836594603" /><path d="M 102.22038585953345 185.97133177190398 a86.0,86.0 0 0,1 -42.740103519485714,-10.115201625700543" fill="none" id="id19" stroke="none" /><text fill="#e1ed5e" style="font-size:6.75px; font-family:Arial;" text-anchor="middle"><textPath startOffset="22.20632615414155" xlink:href="#id19">July</textPath></text><line stroke="#e1ed5e" stroke-width="0.3" x1="58.666819895761336" x2="56.23545636021788" y1="174.27360380694188" y2="178.64263932499728" /><path d="M 58.180547188652646 175.14741091055294 a86.0,86.0 0 0,1 -31.652253787137756,-30.449443065178592" fill="none" id="id20" stroke="none" /><text fill="#e1ed5e" style="font-size:6.75px; font-family:Arial;" text-anchor="middle"><textPath startOffset="22.20632615414155" xlink:href="#id20">August</textPath></text><line stroke="#e1ed5e" stroke-width="0.3" x1="26.63291911575756" x2="22.317208475507996" y1="142.92168965132927" y2="145.44649492493687" /><path d="M 25.769776987707644 143.4266507060508 a86.0,86.0 0 0,1 -11.730757126820373,-40.83630448921669" fill="none" id="id21" stroke="none" /><text fill="#e1ed5e" style="font-size:6.75px; font-family:Arial;" text-anchor="middle"><textPath startOffset="21.46611528233685" xlink:href="#id21">September</textPath></text><line stroke="#e1ed5e" stroke-width="0.3" x1="15.007084014347285" x2="10.007500721073583" y1="101.09737516637583" y2="101.16192664675087" /><path d="M 14.007167355692545 101.11028546245083 a86.0,86.0 0 0,1 10.666146001902534,-42.60595125391555" fill="none" id="id22" stroke="none" /><text fill="#e1ed5e" style="font-size:6.75px; font-family:Arial;" text-anchor="middle"><textPath startOffset="22.20632615414155" xlink:href="#id22">October</textPath></text><line stroke="#e1ed5e" stroke-width="0.3" x1="26.266209847984243" x2="21.928928074336255" y1="57.711370442889674" y2="55.22380399835377" /><path d="M 25.398753493254645 57.213857153982495 a86.0,86.0 0 0,1 29.58750427330803,-30.492523968695096" fill="none" id="id23" stroke="none" /><text fill="#e1ed5e" style="font-size:6.75px; font-family:Arial;" text-anchor="middle"><textPath startOffset="21.46611528233685" xlink:href="#id23">November</textPath></text><line stroke="#e1ed5e" stroke-width="0.3" x1="56.762969772571076" x2="54.21961505331055" y1="26.818313649435495" y2="22.513508569990535" /><path d="M 56.25429882871897 25.957352633546506 a86.0,86.0 0 0,1 42.265352541879196,-11.944610805530505" fill="none" id="id24" stroke="none" /><text fill="#e1ed5e" style="font-size:6.75px; font-family:Arial;" text-anchor="middle"><textPath startOffset="22.20632615414155" xlink:href="#id24">December</textPath></text></svg>