<?xml version="1.0" encoding="utf-8" ?>
<svg baseProfile="full" height="200mm" version="1.1" viewBox="0,0,200,200" width="200mm" xmlns="http://www.w3.org/2000/svg" xmlns:ev="http://www.w3.org/2001/xml-events" xmlns:xlink="http://www.w3.org/1999/xlink"><defs /><rect fill="#1a1a1a" height="200" width="200" x="0" y="0" /><text alignment-baseline="middle" fill="#e1ed5e" style="dominant-baseline: central; font-size:9.0px; font-family:Arial;" text-anchor="middle" x="100.0" y="100.0">2026</text><line stroke="#e1ed5e" stroke-width="0.3" x1="100.0" x2="100.0" y1="15.0" y2="10.0" /><path d="M 100.0 14.0 a86.0,86.0 0 0,1 42.46469731375804,11.215312516191453" fill="none" id="id25" stroke="none" /><text fill="#e1ed5e" style="font-size:6.75px; font-family:Arial;" text-anchor="middle"><textPath startOffset="22.20632615414155" xlink:href="#id25">January</textPath></text><path d="M 100.0 79.0 l 0.0 -18.99277115478624 a39.99277115478624,39.99277115478624 0 0,0 0.6884098135461275,0.00592536060392618 l -0.32692933427359916 18.989957170790873" fill="#ff4706" stroke="none" /><path d="M 100.72285384407766 79.0124445844662 l 0.870002388720464 -25.259910415522143 a46.27488829563018,46.27488829563018 0 0,0 0.7958381018155457,0.034270462754094254 l -1.3046813229253413 25.241192226243854" fill="#ffb510" stroke="none" /><path d="M 103.2404852339499 79.25152402106235 l 3.9354935064886365 -25.198538672281728 a46.50400871153576,46.50400871153576 0 0,0 0.789839128803244,0.1303302238553395 l -4.368661841430756 25.127062185486764" fill="#ffb911" stroke="none" /><path d="M 103.59715602781102 79.31037775812273 l 4.114434848255447 -23.664834689148158 a45.01984544049459,45.01984544049459 0 0,0 0.7623465088492,0.1393139516959376 l -4.521176478207548 23.590505256101483" fill="#ffa00e" stroke="none" /><path d="M 104.307194497241 79.44645832069477 l 4.885127175914463 -23.3113840304125 a44.81774743627594,44.81774743627594 0 0,0 0.7537006473414484,0.1647297689442336 l -5.285670547409439 23.223840763372397" fill="#ff9c0e" stroke="none" /><path d="M 105.01212808612495 79.60689891045804 l 5.682196933216471 -23.119444371454154 a44.807479287665416,44.807479287665416 0 0,0 0.74741246261424,0.19053207855304918 l -6.079318284515736 23.018209296732238" fill="#ff9c0e" stroke="none" /><path d="M 105.36241919743992 79.69619591428918 l 6.121546889490064 -23.178100064432936 a44.97285254026086,44.97285254026086 0 0,0 0.7467680289723695,0.20411991164387003 l -6.519612807686144 23.06929361196277" fill="#ff9f0e" stroke="none" /><path d="M 106.74666289553966 80.11325718540242 l 7.699859143611415 -22.696423530937306 a44.96696626457218,44.96696626457218 0 0,0 0.7308588004180075,0.25498228467711354 l -8.089399948092696 22.560520393087984" fill="#ff9f0e" stroke="none" /><path d="M 107.4271985657038 80.35727306442388 l 8.434606310837728 -22.307020218621656 a44.848390609280514,44.848390609280514 0 0,0 0.7197458408570654,0.27925020433000536 l -8.81733531669446 22.158527310401105" fill="#ff9d0e" stroke="none" /><path d="M 107.76421540070413 80.48803036053334 l 8.869166782369273 -22.288783097035296 a44.98858001967121,44.98858001967121 0 0,0 0.717066829376073,0.2925095641783351 l -9.251517481333734 22.132812646673383" fill="#ff9f0e" stroke="none" /><path d="M 108.09893153111575 80.62456947434976 l 14.936115076747901 -35.73232578653221 a59.72836995925249,59.72836995925249 0 0,0 0.9451765456270766,0.40467527008645277 l -15.548975380165293 35.469930988482965" fill="#7cff26" stroke="none" /><path d="M 109.41281617654863 81.2277094730956 l 10.67960691760294 -21.298693187046826 a44.82621110018266,44.82621110018266 0 0,0 0.6867792048864896,0.35179498339189813 l -11.044646610078184 21.111705678342428" fill="#ff9c0e" stroke="none" /><path d="M 110.05341064243156 81.56283822128135 l 10.110795742043491 -18.542401523006784 a42.11986848391176,42.11986848391176 0 0,0 0.633554848834367,0.3525725874410446 l -10.428474679949893 18.36561353800556" fill="#ff6d0a" stroke="none" /><path d="M 110.36928655335952 81.73862282372117 l 22.589541022109298 -39.78249870142811 a66.7486017985106,66.7486017985106 0 0,0 0.9942467021878467,0.5759318640912945 l -23.270984456762474 39.38776267994676" fill="#31ff42" stroke="none" /><line stroke="#e1ed5e" stroke-width="0.3" x1="143.23703022742887" x2="145.7803849466894" y1="26.81831364943548" y2="22.513508569990506" /><path d="M 143.74570117128098 25.957352633546492 a86.0,86.0 0 0,1 28.547481713284135,27.462654790039103" fill="none" id="id26" stroke="none" /><text fill="#e1ed5e" style="font-size:6.75px; font-family:Arial;" text-anchor="middle"><textPath startOffset="19.985693538727396" xlink:href="#id26">February</textPath></text><path d="M 113.06298171725822 83.55741782278167 l 14.829384278751313 -18.66598108445458 a44.839662076717715,44.839662076717715 0 0,0 0.6002036485372391,0.48532294241784624 l -15.148491325853044 18.407952044772603" fill="#ff9d0e" stroke="none" /><path d="M 113.34407831869373 83.78471172551755 l 16.315456942995457 -19.826010560051607 a46.676152943656035,46.676152943656035 0 0,0 0.6159973329560847,0.5158800512157923 l -16.65431181291066 19.542229351441996" fill="#ffbc11" stroke="none" /><path d="M 114.42810811169701 84.74124197986012 l 10.397267926407785 -10.99585573738523 a36.13314322045806,36.13314322045806 0 0,0 0.4482518699943654,0.4312179437850884 l -10.58500304001457 10.81525470683784" fill="#ff0000" stroke="none" /><path d="M 114.94478906791727 85.2469230424477 l 17.100570985170567 -16.881204452989063 a45.029244511687736,45.029244511687736 0 0,0 0.5397842867639261,0.556295155888586 l -17.3886195356376 16.584345101550365" fill="#ffa00e" stroke="none" /><path d="M 115.4437574822437 85.77008943001954 l 21.84351430805481 -20.12665994626527 a50.70221469720388,50.70221469720388 0 0,0 0.5858673729108392,0.6469293860655564 l -22.186725321581687 19.747677772930164" fill="#fffd17" stroke="none" /><path d="M 115.68641384162765 86.03803664274999 l 15.616579421932949 -13.899806026792184 a41.906510001049625,41.906510001049625 0 0,0 0.4749566833002899,0.5429575935767235 l -15.853527968811088 13.628932877012513" fill="#ff6a09" stroke="none" /><path d="M 116.15771136456269 86.58626213691792 l 23.55198817769466 -19.552286115401497 a51.61026036251229,51.61026036251229 0 0,0 0.561572491293486,0.6884214732470119 l -23.885059161064554 19.143980472546385" fill="#f3ff19" stroke="none" /><path d="M 116.38621287248628 86.86637796730983 l 18.585009176156987 -14.895966987196157 a44.81790080089925,44.81790080089925 0 0,0 0.47730193478407756,0.6061249864054096 l -18.83866519153503 14.57384960683771" fill="#ff9c0e" stroke="none" /><path d="M 116.82858285166822 87.43820079747576 l 19.119371359972146 -14.271772377948905 a44.8586220894776,44.8586220894776 0 0,0 0.4565697472211177,0.6227606221062025 l -19.362203719706887 13.940549312171209" fill="#ff9d0e" stroke="none" /><path d="M 117.04232023915458 87.72973835380427 l 20.4785615688141 -14.744313277822949 a46.234227905016155,46.234227905016155 0 0,0 0.4594523760422873,0.6498628026276707 l -20.729326564660273 14.389623974863486" fill="#ffb410" stroke="none" /><path d="M 117.65298651832404 88.62581576622439 l 21.4886181027322 -13.845560974966766 a46.56286890543768,46.56286890543768 0 0,0 0.4283172053403735,0.6774949582491204 l -21.72376290431853 13.47361836900344" fill="#ffba11" stroke="none" /><line stroke="#e1ed5e" stroke-width="0.3" x1="172.23445277983987" x2="176.4835382374775" y1="55.19839476539836" y2="52.563006222186495" /><path d="M 173.08426987136738 54.67131705675599 a86.0,86.0 0 0,1 12.851231095245387,41.99856678651699" fill="none" id="id27" stroke="none" /><text fill="#e1ed5e" style="font-size:6.75px; font-family:Arial;" text-anchor="middle"><textPath startOffset="22.20632615414155" xlink:href="#id27">March</textPath></text><path d="M 117.84615892207809 88.93136811851018 l 38.7414859275125 -24.028433689618897 a66.58802866376283,66.58802866376283 0 0,0 0.5957542194850056,0.9792632938085982 l -39.14935594528372 23.35800262260322" fill="#31ff3f" stroke="none" /><path d="M 118.21658344932153 89.55222093294921 l 21.209076413307585 -12.164067164344619 a45.449733174090206,45.449733174090206 0 0,0 0.38338442557561403,0.6819981139152126 l -21.415318480175632 11.797185540494613" fill="#ffa70f" stroke="none" /><path d="M 119.196687751892 91.48605970444005 l 21.829748277073662 -9.68173134346001 a44.88040685682169,44.88040685682169 0 0,0 0.3071300672078824,0.7088985402718597 l -21.993169054124227 9.304533658601548" fill="#ff9d0e" stroke="none" /><path d="M 119.47837535516314 92.15188598940014 l 24.897397865100324 -10.031515126377244 a47.84234930448223,47.84234930448223 0 0,0 0.301193674612633,0.7665050491245963 l -25.066385089594657 9.601461072356862" fill="#ffcf13" stroke="none" /><path d="M 119.61058180528143 92.48833698450437 l 22.29795619758669 -8.541038432905887 a44.8777760292258,44.8777760292258 0 0,0 0.2701116651593282,0.7237649715561133 l -22.441672451247644 8.155950324320441" fill="#ff9d0e" stroke="none" /><path d="M 119.85752413597 93.16781622104841 l 24.081877978424266 -8.285615818179872 a46.467396342268444,46.467396342268444 0 0,0 0.2537179721897263,0.7585844430142337 l -24.220933244385762 7.869858272243325" fill="#ffb811" stroke="none" /><path d="M 119.97218684219823 93.5106431181261 l 42.722575872646594 -13.881406374827627 a65.92117465224112,65.92117465224112 0 0,0 0.34136029747569285,1.0822054281111944 l -42.955191653890495 13.143950780290012" fill="#30ff35" stroke="none" /><path d="M 120.18372546131832 94.20196356495316 l 23.16238050619332 -6.653693658026797 a45.0991184487846,45.0991184487846 0 0,0 0.20791387150652146,0.7479768181657852 l -23.273481148266203 6.25400553644206" fill="#ffa10e" stroke="none" /><path d="M 120.37134235888165 94.90015583598534 l 23.233371411647905 -5.8163360821639065 a44.95035099058592,44.95035099058592 0 0,0 0.18144358956025092,0.752200818104054 l -23.330047801468975 5.415550032400446" fill="#ff9e0e" stroke="none" /><path d="M 120.6074358757038 95.95851677861258 l 61.822307627111385 -12.124449664162288 a84.0,84.0 0 0,0 0.26605710436056285,1.4212876901497489 l -62.02185045538181 11.058483896549978" fill="#4dd2ff" stroke="none" /><path d="M 120.83666639777658 97.38593545837742 l 18.955496319949493 -2.378062299069329 a40.104083883658845,40.104083883658845 0 0,0 0.0800356189846953,0.6856963065320508 l -18.993622291937776 2.051422254212426" fill="#ff4906" stroke="none" /><path d="M 120.87857604477298 97.74499172005257 l 23.763394742074574 -2.566585565419963 a44.901595995503726,44.901595995503726 0 0,0 0.07638162240070114,0.7691525138098307 l -23.804053490157507 2.1571575209056975" fill="#ff9e0e" stroke="none" /><path d="M 120.94382443527127 98.46500227214037 l 41.997090055752466 -3.0780165299576754 a63.1097347285598,63.1097347285598 0 0,0 0.07008008170181564,1.0841078457487325 l -42.04385072845869 2.3546496199559077" fill="#4fff2b" stroke="none" /><path d="M 120.98425023603335 99.18683210126433 l 23.870307018267738 -0.9250064778053859 a44.88822291695939,44.88822291695939 0 0,0 0.023274127926808063,0.7723549985208912 l -23.88269284065019 0.5139813318594957" fill="#ff9d0e" stroke="none" /><line stroke="#e1ed5e" stroke-width="0.3" x1="184.98032266829074" x2="189.97916517819016" y1="98.17113171792111" y2="98.06355123074" /><path d="M 185.9800911702706 98.14961562048488 a86.0,86.0 0 0,1 -9.607161424134198,41.387399972396054" fill="none" id="id28" stroke="none" /><text fill="#e1ed5e" style="font-size:6.75px; font-family:Arial;" text-anchor="middle"><textPath startOffset="21.466115282336823" xlink:href="#id28">April</textPath></text><path d="M 120.92983693683757 101.71520430193887 l 23.91498485282755 1.9598377676883414 a44.995155023183926,44.995155023183926 0 0,0 -0.06990405229556938,0.7713853920708804 l -23.877706204254906 -2.3712045483077926" fill="#ff9f0e" stroke="none" /><path d="M 120.81339534386255 102.79330883721812 l 23.98763845944175 3.2193153200498896 a45.20270212168048,45.20270212168048 0 0,0 -0.11013519765093666,0.7702853158554342 l -23.928669210774213 -3.631746107885733" fill="#ffa30f" stroke="none" /><path d="M 120.70491114924044 103.5080841355445 l 44.417116820597435 7.525701595231469 a66.05015484052268,66.05015484052268 0 0,0 -0.1995770146989819,1.1193338866147418 l -44.28099336355926 -8.28915423257943" fill="#30ff37" stroke="none" /><path d="M 120.64145759157962 103.86396538481128 l 23.367742562225242 4.374310679418925 a44.7736405788956,44.7736405788956 0 0,0 -0.14832881790463295,0.7563254468836593 l -23.288983811344945 -4.77589985337053" fill="#ff9b0e" stroke="none" /><line stroke="#e1ed5e" stroke-width="0.3" x1="174.80103733775053" x2="179.2010983576182" y1="140.37084112569926" y2="142.7455964860345" /><path d="M 175.68104954172406 140.8457921977663 a86.0,86.0 0 0,1 -30.038265399797805,32.042727171017184" fill="none" id="id29" stroke="none" /><text fill="#e1ed5e" style="font-size:6.75px; font-family:Arial;" text-anchor="middle"><textPath startOffset="22.206326154141568" xlink:href="#id29">May</textPath></text><line stroke="#e1ed5e" stroke-width="0.3" x1="143.8653032363475" x2="146.44561519142675" y1="172.8068346515853" y2="177.08958963109032" /><path d="M 144.38136562736335 173.6633856474863 a86.0,86.0 0 0,1 -40.68145358897372,12.25698825130547" fill="none" id="id30" stroke="none" /><text fill="#e1ed5e" style="font-size:6.75px; font-family:Arial;" text-anchor="middle"><textPath startOffset="21.466115282336833" xlink:href="#id30">June</textPath></text><line stroke="#e1ed5e" stroke-width="0.3" x1="102.19456741930631" x2="102.32365962044197" y1="184.97166512339345" y2="189.96999836594603" /><path d="M 102.22038585953345 185.97133177190398 a86.0,86.0 0 0,1 -42.740103519485714,-10.115201625700543" fill="none" id="id31" stroke="none" /><text fill="#e1ed5e" style="font-size:6.75px; font-family:Arial;" text-anchor="middle"><textPath startOffset="22.20632615414155" xlink:href="#id31">July</textPath></text><line stroke="#e1ed5e" stroke-width="0.3" x1="58.666819895761336" x2="56.23545636021788" y1="174.27360380694188" y2="178.64263932499728" /><path d="M 58.180547188652646 175.14741091055294 a86.0,86.0 0 0,1 -31.652253787137756,-30.449443065178592" fill="none" id="id32" stroke="none" /><text fill="#e1ed5e" style="font-size:6.75px; font-family:Arial;" text-anchor="middle"><textPath startOffset="22.20632615414155" xlink:href="#id32">August</textPath></text><line stroke="#e1ed5e" stroke-width="0.3" x1="26.63291911575756" x2="22.317208475507996" y1="142.92168965132927" y2="145.44649492493687" /><path d="M 25.769776987707644 143.4266507060508 a86.0,86.0 0 0,1 -11.730757126820373,-40.83630448921669" fill="none" id="id33" stroke="none" /><text fill="#e1ed5e" style="font-size:6.75px; font-family:Arial;" text-anchor="middle"><textPath startOffset="21.46611528233685" xlink:href="#id33">September</textPath></text><line stroke="#e1ed5e" stroke-width="0.3" x1="15.007084014347285" x2="10.007500721073583" y1="101.09737516637583" y2="101.16192664675087" /><path d="M 14.007167355692545 101.11028546245083 a86.0,86.0 0 0,1 10.666146001902534,-42.60595125391555" fill="none" id="id34" stroke="none" /><text fill="#e1ed5e" style="font-size:6.75px; font-family:Arial;" text-anchor="middle"><textPath startOffset="22.20632615414155" xlink:href="#id34">October</textPath></text><line stroke="#e1ed5e" stroke-width="0.3" x1="26.266209847984243" x2="21.928928074336255" y1="57.711370442889674" y2="55.22380399835377" /><path d="M 25.398753493254645 57.213857153982495 a86.0,86.0 0 0,1 29.58750427330803,-30.492523968695096" fill="none" id="id35" stroke="none" /><text fill="#e1ed5e" style="font-size:6.75px; font-family:Arial;" text-anchor="middle"><textPath startOffset="21.46611528233685" xlink:href="#id35">November</textPath></text><line stroke="#e1ed5e" stroke-width="0.3" x1="56.762969772571076" x2="54.21961505331055" y1="26.818313649435495" y2="22.513508569990535" /><path d="M 56.25429882871897 25.957352633546506 a86.0,86.0 0 0,1 42.265352541879196,-11.944610805530505" fill="none" id="id36" stroke="none" /><text fill="#e1ed5e" style="font-size:6.75px; font-family:Arial;" text-anchor="middle"><textPath startOffset="22.20632615414155" xlink:href="#id36">December</textPath></text></svg>