<?xml version="1.0" encoding="utf-8" ?>
<svg baseProfile="full" height="200mm" version="1.1" viewBox="0,0,200,200" width="200mm" xmlns="http://www.w3.org/2000/svg" xmlns:ev="http://www.w3.org/2001/xml-events" xmlns:xlink="http://www.w3.org/1999/xlink"><defs /><rect fill="#1a1a1a" height="200" width="200" x="0" y="0" /><text alignment-baseline="middle" fill="#e1ed5e" style="dominant-baseline: central; font-size:9.0px; font-family:Arial;" text-anchor="middle" x="100.0" y="100.0">2025</text><line stroke="#e1ed5e" stroke-width="0.3" x1="100.0" x2="100.0" y1="15.0" y2="10.0" /><path d="M 100.0 14.0 a86.0,86.0 0 0,1 42.46469731375804,11.215312516191453" fill="none" id="id13" stroke="none" /><text fill="#e1ed5e" style="font-size:6.75px; font-family:Arial;" text-anchor="middle"><textPath startOffset="22.20632615414155" xlink:href="#id13">January</textPath></text><path d="M 100.0 79.0 l 0.0 -36.153440413107944 a57.153440413107944,57.153440413107944 0 0,0 0.9838025253621024,0.008467898933333676 l -0.6223220460895741 36.14808389078317" fill="#a2ff22" stroke="none" /><path d="M 100.72285384407766 79.0124445844662 l 0.6673512952768665 -19.37607775901478 a40.38756681676932,40.38756681676932 0 0,0 0.6945876196840316,0.029910404007464437 l -1.0007797473502298 19.361719628483122" fill="#ff4b07" stroke="none" /><path d="M 106.0581310904928 79.89281104454417 l 4.616329824089185 -15.321790609538787 a37.00211762634328,37.00211762634328 0 0,0 0.6082701069186789,0.18899248312679467 l -4.879385303718582 15.240057991529472" fill="#ff0d01" stroke="none" /><path d="M 107.08798089147638 80.2323363322302 l 6.514776352315363 -18.169054033169914 a40.30173140889012,40.30173140889012 0 0,0 0.651002837898191,0.23976983923685413 l -6.826561515986131 18.054220926126735" fill="#ff4a06" stroke="none" /><path d="M 107.76421540070413 80.48803036053334 l 7.516834113374568 -18.890284650239163 a41.330903798283366,41.330903798283366 0 0,0 0.6587676278940965,0.26872785608806415 l -7.840885610857051 18.75809590796752" fill="#ff5c08" stroke="none" /><path d="M 108.76106565485865 80.91482961587045 l 9.433205261585885 -20.54936428720767 a43.61109758759131,43.61109758759131 0 0,0 0.6795476837999722,0.31905674928371985 l -9.785531156685455 20.383942555283944" fill="#ff850c" stroke="none" /><path d="M 109.73455568895987 81.39251694778311 l 7.286386570929451 -13.927837999245893 a36.718654541475836,36.718654541475836 0 0,0 0.5575202326364426,0.29780800012601494 l -7.525051850094204 13.800351272618125" fill="#ff0701" stroke="none" /><line stroke="#e1ed5e" stroke-width="0.3" x1="143.23703022742887" x2="145.7803849466894" y1="26.81831364943548" y2="22.513508569990506" /><path d="M 143.74570117128098 25.957352633546492 a86.0,86.0 0 0,1 28.547481713284135,27.462654790039103" fill="none" id="id14" stroke="none" /><text fill="#e1ed5e" style="font-size:6.75px; font-family:Arial;" text-anchor="middle"><textPath startOffset="19.985693538727396" xlink:href="#id14">February</textPath></text><path d="M 112.19680574252982 82.90503203632743 l 11.012996130331782 -15.435747687248332 a39.96176126922536,39.96176126922536 0 0,0 0.5565240119017487,0.4043383625027796 l -11.27706545858732 15.243890089928877" fill="#ff4406" stroke="none" /><path d="M 113.06298171725822 83.55741782278167 l 15.263787893616145 -19.212771801160482 a45.538007684911385,45.538007684911385 0 0,0 0.6095513903034607,0.4928814995009317 l -15.592242682484097 18.94718420439542" fill="#ffa60f" stroke="none" /><path d="M 114.68862486808459 84.99185889309783 l 14.99491796672914 -15.321096886344531 a42.43790042494116,42.43790042494116 0 0,0 0.5176700383301855,0.5154469986705993 l -15.256423805226648 15.060714037023814" fill="#ff700a" stroke="none" /><path d="M 114.94478906791727 85.2469230424477 l 14.230303367117811 -14.047756696352113 a40.996024657919136,40.996024657919136 0 0,0 0.4914364025003224,0.5064684112559333 l -14.470004033321242 13.800724089546065" fill="#ff5608" stroke="none" /><path d="M 115.4437574822437 85.77008943001954 l 11.272280461178312 -10.386302884303118 a36.32773937669693,36.32773937669693 0 0,0 0.4197693800856554,0.46351983384686635 l -11.449393481880003 10.190730263186703" fill="#ff0000" stroke="none" /><path d="M 115.68641384162765 86.03803664274999 l 22.421173655016904 -19.95635255823413 a51.01607961571534,51.01607961571534 0 0,0 0.5782020017571683,0.6609848403308591 l -22.761367520351918 19.567452161700324" fill="#feff18" stroke="none" /><path d="M 116.38621287248628 86.86637796730983 l 16.603709284855622 -13.30794636838346 a42.278735830865784,42.278735830865784 0 0,0 0.4502603212485187,0.5717848833340995 l -16.830323686698105 13.020169091096323" fill="#ff6d0a" stroke="none" /><path d="M 116.82858285166822 87.43820079747576 l 17.103004440695457 -12.766642885951587 a42.342444365064345,42.342444365064345 0 0,0 0.43096016373218926,0.5878291790079329 l -17.320227216941273 12.47035126327216" fill="#ff6e0a" stroke="none" /><path d="M 117.04232023915458 87.72973835380427 l 13.646645268989506 -9.825417296091548 a37.81575904144587,37.81575904144587 0 0,0 0.37579388973747463,0.5315338066130101 l -13.813751778530865 9.589056989146744" fill="#ff1c02" stroke="none" /><path d="M 117.45458315368197 88.32363383020206 l 16.10347383686581 -10.772532089105894 a40.37445011414357,40.37445011414357 0 0,0 0.38144889277236654,0.580972833396606 l -16.2865193649961 10.493741191731614" fill="#ff4b07" stroke="none" /><path d="M 117.65298651832404 88.62581576622439 l 39.325836024568865 -25.338449311474484 a67.78203065859198,67.78203065859198 0 0,0 0.6235056092214543,0.9862361385924082 l -39.75616923003627 24.657765525167868" fill="#33ff51" stroke="none" /><line stroke="#e1ed5e" stroke-width="0.3" x1="172.23445277983987" x2="176.4835382374775" y1="55.19839476539836" y2="52.563006222186495" /><path d="M 173.08426987136738 54.67131705675599 a86.0,86.0 0 0,1 12.851231095245387,41.99856678651699" fill="none" id="id15" stroke="none" /><text fill="#e1ed5e" style="font-size:6.75px; font-family:Arial;" text-anchor="middle"><textPath startOffset="22.20632615414155" xlink:href="#id15">March</textPath></text><path d="M 118.03404312379186 89.2402003453031 l 14.497493715693304 -8.649759058760008 a37.88181435187485,37.88181435187485 0 0,0 0.32928374873551725,0.5628526654844112 l -14.64423713889915 8.398926980921702" fill="#ff1d03" stroke="none" /><path d="M 118.3937258080291 89.86733742301442 l 18.516773010879636 -10.200446331105818 a42.140482210446635,42.140482210446635 0 0,0 0.344532356693431,0.6383661315563476 l -18.68961346679153 9.880199216217012" fill="#ff6b09" stroke="none" /><path d="M 118.56541770881063 90.18545643968196 l 18.737373741685772 -9.905447519581596 a42.194505545041636,42.194505545041636 0 0,0 0.33392041876471823,0.6450279643188334 l -18.905103593610605 9.581446833002419" fill="#ff6c09" stroke="none" /><path d="M 118.89224826269711 90.83032412892265 l 17.91530745507227 -8.695500938238013 a40.91406482305072,40.91406482305072 0 0,0 0.3020662146400596,0.6362284845210374 l -18.062331863554085 8.385830038076435" fill="#ff5507" stroke="none" /><path d="M 119.04729006885535 91.15688171328212 l 46.019536083278176 -21.365569569906103 a71.73741483724451,71.73741483724451 0 0,0 0.5103525506535022,1.1244941955708452 l -46.38049095089503 20.570253365493194" fill="#39ff8c" stroke="none" /><path d="M 119.47837535516314 92.15188598940014 l 18.390339535802642 -7.409728929592871 a40.82696827687358,40.82696827687358 0 0,0 0.2570280259513279,0.65410829065916 l -18.51516111163567 7.092071634037928" fill="#ff5307" stroke="none" /><path d="M 120.08093135843002 93.85539295169968 l 14.87811620314712 -4.552586533737168 a36.559061215301966,36.559061215301966 0 0,0 0.17895504286025354,0.6033474412075408 l -14.954277143119075 4.295809705783098" fill="#ff0400" stroke="none" /><path d="M 120.28053869075195 94.5502522615342 l 19.268116083461273 -5.177691463305314 a40.95166124148372,40.95166124148372 0 0,0 0.1770743360348322,0.6823396499098932 l -19.354386751366405 4.845255387846571" fill="#ff5607" stroke="none" /><path d="M 120.67395015179393 96.31383870115 l 62.02185045538181 -11.058483896549978 a84.0,84.0 0 0,0 0.2415525539191079,1.4256568467366484 l -62.20301487082114 9.98924126149749" fill="#4dd2ff" stroke="none" /><path d="M 120.83666639777658 97.38593545837742 l 16.310685349697838 -2.046257467881602 a37.43854087812264,37.43854087812264 0 0,0 0.07471600153632506,0.6401210728700428 l -16.343491704237753 1.7651926566867064" fill="#ff1502" stroke="none" /><path d="M 120.96714384426684 98.82574320788733 l 19.94476960176007 -1.1169991175690326 a40.9760236657835,40.9760236657835 0 0,0 0.033378662564781544,0.7045708114508351 l -19.961041872558347 0.7735171994951976" fill="#ff5608" stroke="none" /><path d="M 120.98425023603335 99.18683210126433 l 18.213889484758216 -0.7058126963569908 a39.2275599498486,39.2275599498486 0 0,0 0.020339126594926295,0.6749565930264668 l -18.223340305808787 0.39218595590552485" fill="#ff3605" stroke="none" /><line stroke="#e1ed5e" stroke-width="0.3" x1="184.98032266829074" x2="189.97916517819016" y1="98.17113171792111" y2="98.06355123074" /><path d="M 185.9800911702706 98.14961562048488 a86.0,86.0 0 0,1 -9.607161424134198,41.387399972396054" fill="none" id="id16" stroke="none" /><text fill="#e1ed5e" style="font-size:6.75px; font-family:Arial;" text-anchor="middle"><textPath startOffset="21.466115282336823" xlink:href="#id16">April</textPath></text><path d="M 120.99980553446 99.90962569577887 l 18.965662977834292 -0.08162021276347477 a39.96583860650316,39.96583860650316 0 0,0 -0.0029607125451153373,0.6879653262805786 l -18.96425796799967 -0.24485459172078852" fill="#ff4406" stroke="none" /><path d="M 120.9904718944345 100.63252640178507 l 19.30999195445569 0.5818868575645983 a40.31875724771523,40.31875724771523 0 0,0 -0.02687507655038601,0.6935263090473185 l -19.2971147450541 -0.914190413625923" fill="#ff4a06" stroke="none" /><path d="M 120.89721153311464 102.0752229133903 l 16.820792004772873 1.6704091325468 a37.903529523088565,37.903529523088565 0 0,0 -0.07006322767015384,0.6486984725784013 l -16.789546475601668 -1.9597039270099927" fill="#ff1e03" stroke="none" /><path d="M 120.8583938346157 102.4346265915055 l 19.62533829128646 2.2907022875348644 a40.75857332950818,40.75857332950818 0 0,0 -0.08733687071807317,0.6961607911366612 l -19.58299991132154 -2.6281808329589205" fill="#ff5207" stroke="none" /><path d="M 120.76222939487914 103.15116336523771 l 21.060588309069605 3.1964464445355834 a42.30177574280847,42.30177574280847 0 0,0 -0.11546017014190413,0.7189705896889761 l -21.002446384566415 -3.5584962639177644" fill="#ff6e0a" stroke="none" /><line stroke="#e1ed5e" stroke-width="0.3" x1="174.80103733775053" x2="179.2010983576182" y1="140.37084112569926" y2="142.7455964860345" /><path d="M 175.68104954172406 140.8457921977663 a86.0,86.0 0 0,1 -30.038265399797805,32.042727171017184" fill="none" id="id17" stroke="none" /><text fill="#e1ed5e" style="font-size:6.75px; font-family:Arial;" text-anchor="middle"><textPath startOffset="22.206326154141568" xlink:href="#id17">May</textPath></text><line stroke="#e1ed5e" stroke-width="0.3" x1="143.8653032363475" x2="146.44561519142675" y1="172.8068346515853" y2="177.08958963109032" /><path d="M 144.38136562736335 173.6633856474863 a86.0,86.0 0 0,1 -40.68145358897372,12.25698825130547" fill="none" id="id18" stroke="none" /><text fill="#e1ed5e" style="font-size:6.75px; font-family:Arial;" text-anchor="middle"><textPath startOffset="21.466115282336833" xlink:href="#id18">June</textPath></text><line stroke="#e1ed5e" stroke-width="0.3" x1="102.19456741930631" x2="102.32365962044197" y1="184.97166512339345" y2="189.96999836594603" /><path d="M 102.22038585953345 185.97133177190398 a86.0,86.0 0 0,1 -42.740103519485714,-10.115201625700543" fill="none" id="id19" stroke="none" /><text fill="#e1ed5e" style="font-size:6.75px; font-family:Arial;" text-anchor="middle"><textPath startOffset="22.20632615414155" xlink:href="#id19">July</textPath></text><line stroke="#e1ed5e" stroke-width="0.3" x1="58.666819895761336" x2="56.23545636021788" y1="174.27360380694188" y2="178.64263932499728" /><path d="M 58.180547188652646 175.14741091055294 a86.0,86.0 0 0,1 -31.652253787137756,-30.449443065178592" fill="none" id="id20" stroke="none" /><text fill="#e1ed5e" style="font-size:6.75px; font-family:Arial;" text-anchor="middle"><textPath startOffset="22.20632615414155" xlink:href="#id20">August</textPath></text><line stroke="#e1ed5e" stroke-width="0.3" x1="26.63291911575756" x2="22.317208475507996" y1="142.92168965132927" y2="145.44649492493687" /><path d="M 25.769776987707644 143.4266507060508 a86.0,86.0 0 0,1 -11.730757126820373,-40.83630448921669" fill="none" id="id21" stroke="none" /><text fill="#e1ed5e" style="font-size:6.75px; font-family:Arial;" text-anchor="middle"><textPath startOffset="21.46611528233685" xlink:href="#id21">September</textPath></text><line stroke="#e1ed5e" stroke-width="0.3" x1="15.007084014347285" x2="10.007500721073583" y1="101.09737516637583" y2="101.16192664675087" /><path d="M 14.007167355692545 101.11028546245083 a86.0,86.0 0 0,1 10.666146001902534,-42.60595125391555" fill="none" id="id22" stroke="none" /><text fill="#e1ed5e" style="font-size:6.75px; font-family:Arial;" text-anchor="middle"><textPath startOffset="22.20632615414155" xlink:href="#id22">October</textPath></text><line stroke="#e1ed5e" stroke-width="0.3" x1="26.266209847984243" x2="21.928928074336255" y1="57.711370442889674" y2="55.22380399835377" /><path d="M 25.398753493254645 57.213857153982495 a86.0,86.0 0 0,1 29.58750427330803,-30.492523968695096" fill="none" id="id23" stroke="none" /><text fill="#e1ed5e" style="font-size:6.75px; font-family:Arial;" text-anchor="middle"><textPath startOffset="21.46611528233685" xlink:href="#id23">November</textPath></text><line stroke="#e1ed5e" stroke-width="0.3" x1="56.762969772571076" x2="54.21961505331055" y1="26.818313649435495" y2="22.513508569990535" /><path d="M 56.25429882871897 25.957352633546506 a86.0,86.0 0 0,1 42.265352541879196,-11.944610805530505" fill="none" id="id24" stroke="none" /><text fill="#e1ed5e" style="font-size:6.75px; font-family:Arial;" text-anchor="middle"><textPath startOffset="22.20632615414155" xlink:href="#id24">December</textPath></text></svg>