<?xml version="1.0" encoding="utf-8" ?>
<svg baseProfile="full" height="200mm" version="1.1" viewBox="0,0,200,200" width="200mm" xmlns="http://www.w3.org/2000/svg" xmlns:ev="http://www.w3.org/2001/xml-events" xmlns:xlink="http://www.w3.org/1999/xlink"><defs /><rect fill="#1a1a1a" height="200" width="200" x="0" y="0" /><text alignment-baseline="middle" fill="#e1ed5e" style="dominant-baseline: central; font-size:9.0px; font-family:Arial;" text-anchor="middle" x="100.0" y="100.0">2025</text><line stroke="#e1ed5e" stroke-width="0.3" x1="100.0" x2="100.0" y1="15.0" y2="10.0" /><path d="M 100.0 14.0 a86.0,86.0 0 0,1 42.46469731375804,11.215312516191453" fill="none" id="id13" stroke="none" /><text fill="#e1ed5e" style="font-size:6.75px; font-family:Arial;" text-anchor="middle"><textPath startOffset="22.20632615414155" xlink:href="#id13">January</textPath></text><path d="M 100.0 79.0 l 0.0 -35.7235025833558 a56.7235025833558,56.7235025833558 0 0,0 0.9764018523737122,0.008404199004446753 l -0.6149213731011839 35.718209760959915" fill="#82ff25" stroke="none" /><path d="M 100.72285384407766 79.0124445844662 l 0.6594151330667112 -19.1456568440028 a40.15700927352776,40.15700927352776 0 0,0 0.6906224782362467,0.02973965667582622 l -0.9888784436922894 19.13146946080278" fill="#ff940d" stroke="none" /><path d="M 106.0581310904928 79.89281104454417 l 4.561432287276356 -15.13958340249817 a36.81181994941143,36.81181994941143 0 0,0 0.6051418430322006,0.18802051630965752 l -4.821359503019275 15.058822751305991" fill="#ff5f08" stroke="none" /><path d="M 107.08798089147638 80.2323363322302 l 6.437302430767929 -17.952987081576612 a40.07219462296952,40.07219462296952 0 0,0 0.6472950791043994,0.23840424038203703 l -6.745379835644904 17.83951957338825" fill="#ff920d" stroke="none" /><path d="M 107.76421540070413 80.48803036053334 l 7.427443689990702 -18.665640801877245 a41.08912806252893,41.08912806252893 0 0,0 0.6549139974798515,0.2671558634831963 l -7.747641557058941 18.53502405221047" fill="#ffa20f" stroke="none" /><path d="M 108.76106565485865 80.91482961587045 l 9.321025293333063 -20.30499061257324 a43.34220571688574,43.34220571688574 0 0,0 0.6753578133761973,0.31708954893972885 l -9.66916131800886 20.141536080993504" fill="#ffc412" stroke="none" /><path d="M 109.73455568895987 81.39251694778311 l 7.199736636836186 -13.762207719689869 a36.53172781630211,36.53172781630211 0 0,0 0.5546820177670195,0.29629192403637467 l -7.4355637011315165 13.63623706915174" fill="#ff5a08" stroke="none" /><line stroke="#e1ed5e" stroke-width="0.3" x1="143.23703022742887" x2="145.7803849466894" y1="26.81831364943548" y2="22.513508569990506" /><path d="M 143.74570117128098 25.957352633546492 a86.0,86.0 0 0,1 28.547481713284135,27.462654790039103" fill="none" id="id14" stroke="none" /><text fill="#e1ed5e" style="font-size:6.75px; font-family:Arial;" text-anchor="middle"><textPath startOffset="19.985693538727396" xlink:href="#id14">February</textPath></text><path d="M 112.19680574252982 82.90503203632743 l 10.882029240286462 -15.252185299120784 a39.73626741870338,39.73626741870338 0 0,0 0.5533836912961023,0.402056786031206 l -11.142958247936354 15.062609278272904" fill="#ff8d0d" stroke="none" /><path d="M 113.06298171725822 83.55741782278167 l 15.082270456664311 -18.984292925641927 a45.24620093982864,45.24620093982864 0 0,0 0.6056453958120932,0.48972312359928843 l -15.406819251040895 18.72186370477851" fill="#ffe015" stroke="none" /><path d="M 114.68862486808459 84.99185889309783 l 14.816597939250109 -15.138897929081558 a42.18296025112025,42.18296025112025 0 0,0 0.514560202823898,0.5123505177862782 l -15.07499394224133 14.881611560645162" fill="#ffb310" stroke="none" /><path d="M 114.94478906791727 85.2469230424477 l 14.061076160067415 -13.880700339947209 a40.75823131524243,40.75823131524243 0 0,0 0.48858587477626436,0.5035306918678306 l -14.29792629854679 13.636605452529263" fill="#ff9d0e" stroke="none" /><path d="M 115.4437574822437 85.77008943001954 l 11.138230153864287 -10.26278864969084 a36.14546142673358,36.14546142673358 0 0,0 0.4176631465745088,0.4611940781975854 l -11.313236941054832 10.069541784223707" fill="#ff5407" stroke="none" /><path d="M 115.68641384162765 86.03803664274999 l 22.154540365582058 -19.719030997391894 a50.65912747007752,50.65912747007752 0 0,0 0.5741564058059708,0.6563600248066672 l -22.490688634965874 19.334755416382276" fill="#d1ff1c" stroke="none" /><path d="M 116.38621287248628 86.86637796730983 l 16.40625746134457 -13.149687859242897 a42.02568844731236,42.02568844731236 0 0,0 0.44756541578432363,0.5683626270665064 l -16.63017695772286 12.865332838223352" fill="#ffb010" stroke="none" /><path d="M 116.82858285166822 87.43820079747576 l 16.899614983773738 -12.614821574538675 a42.08863935765502,42.08863935765502 0 0,0 0.4283769437695879,0.5843056698820256 l -17.11425454005695 12.322053460985156" fill="#ffb110" stroke="none" /><path d="M 117.04232023915458 87.72973835380427 l 13.484358942064471 -9.70857313021352 a37.61578551568171,37.61578551568171 0 0,0 0.3738066539660316,0.5287230025444006 l -13.649478215834387 9.475023627337325" fill="#ff6c09" stroke="none" /><path d="M 117.45458315368197 88.32363383020206 l 15.911970828748707 -10.644424804863968 a40.14404855513465,40.14404855513465 0 0,0 0.37927210969969277,0.5776574434364213 l -16.092839573806327 10.368949297449873" fill="#ff940d" stroke="none" /><path d="M 117.65298651832404 88.62581576622439 l 38.85817196824681 -25.03712368985231 a67.22569730544696,67.22569730544696 0 0,0 0.6183880734540461,0.9781414259872413 l -39.28338763794681 24.364534616150863" fill="#35ff61" stroke="none" /><line stroke="#e1ed5e" stroke-width="0.3" x1="172.23445277983987" x2="176.4835382374775" y1="55.19839476539836" y2="52.563006222186495" /><path d="M 173.08426987136738 54.67131705675599 a86.0,86.0 0 0,1 12.851231095245387,41.99856678651699" fill="none" id="id15" stroke="none" /><text fill="#e1ed5e" style="font-size:6.75px; font-family:Arial;" text-anchor="middle"><textPath startOffset="22.20632615414155" xlink:href="#id15">March</textPath></text><path d="M 118.03404312379186 89.2402003453031 l 14.325089072767247 -8.546895856942738 a37.68105529431938,37.68105529431938 0 0,0 0.32753867141555504,0.5598697626694713 l -14.47008741865313 8.299046681919373" fill="#ff6d0a" stroke="none" /><path d="M 118.3937258080291 89.86733742301442 l 18.29657097446641 -10.079142308363108 a41.88907894321628,41.88907894321628 0 0,0 0.3424769326546945,0.6345577429773797 l -18.467356006339568 9.76270358205327" fill="#ffae10" stroke="none" /><path d="M 118.56541770881063 90.18545643968196 l 18.51454831457001 -9.787651631814619 a41.94245983064813,41.94245983064813 0 0,0 0.331925770186403,0.6411749381494195 l -18.68028351791653 9.467503971404854" fill="#ffaf10" stroke="none" /><path d="M 118.89224826269711 90.83032412892265 l 17.702258065620985 -8.592093772577556 a40.67724614926106,40.67724614926106 0 0,0 0.3003177958345192,0.632545868614182 l -17.84753405529726 8.286105488322832" fill="#ff9c0e" stroke="none" /><path d="M 119.04729006885535 91.15688171328212 l 45.47227033916738 -21.111489556846724 a71.13404393331112,71.13404393331112 0 0,0 0.5060600642221031,1.1150362707098955 l -45.828932720352825 20.325631277294768" fill="#3aff95" stroke="none" /><path d="M 119.47837535516314 92.15188598940014 l 18.171641050179097 -7.321612204361772 a40.59118535790046,40.59118535790046 0 0,0 0.2555436439172342,0.6503307002916797 l -18.29497824397803 7.007732499174308" fill="#ff9a0e" stroke="none" /><path d="M 120.08093135843002 93.85539295169968 l 14.701185185847255 -4.4984470341014955 a36.37403237889108,36.37403237889108 0 0,0 0.17804933461038105,0.6002938432406599 l -14.776440417569338 4.244723804114305" fill="#ff5808" stroke="none" /><path d="M 120.28053869075195 94.5502522615342 l 19.038979052028655 -5.116118196544994 a40.71439546992514,40.71439546992514 0 0,0 0.17604840258820637,0.6783863098354522 l -19.124223786487164 4.787635461160692" fill="#ff9c0e" stroke="none" /><path d="M 120.67395015179393 96.31383870115 l 61.28428469463252 -10.926976064584204 a83.25080205466244,83.25080205466244 0 0,0 0.23939814109664082,1.4129413803041304 l -61.46329469724938 9.870448895964236" fill="#4cdaff" stroke="none" /><path d="M 120.83666639777658 97.38593545837742 l 16.116718175871785 -2.0219233108884502 a37.243053242404585,37.243053242404585 0 0,0 0.0743258673551295,0.6367786414564887 l -16.149134396230505 1.7442009311071087" fill="#ff6609" stroke="none" /><path d="M 120.96714384426684 98.82574320788733 l 19.707585785793878 -1.1037157295717848 a40.73846817552287,40.73846817552287 0 0,0 0.03318515221798716,0.7004861138749379 l -19.72366454624536 0.7643185090738471" fill="#ff9d0e" stroke="none" /><path d="M 120.98425023603335 99.18683210126433 l 17.99728934859018 -0.697419149977565 a39.010797244087584,39.010797244087584 0 0,0 0.020226737139166912,0.6712269341447342 l -18.006627780184992 0.3875220684078317" fill="#ff820c" stroke="none" /><line stroke="#e1ed5e" stroke-width="0.3" x1="184.98032266829074" x2="189.97916517819016" y1="98.17113171792111" y2="98.06355123074" /><path d="M 185.9800911702706 98.14961562048488 a86.0,86.0 0 0,1 -9.607161424134198,41.387399972396054" fill="none" id="id16" stroke="none" /><text fill="#e1ed5e" style="font-size:6.75px; font-family:Arial;" text-anchor="middle"><textPath startOffset="21.466115282336823" xlink:href="#id16">April</textPath></text><path d="M 120.99980553446 99.90962569577887 l 18.740122728073047 -0.08064958267299205 a39.740296268160364,39.740296268160364 0 0,0 -0.002944004124777636,0.6840828778246405 l -18.738734426658766 -0.24194277335533318" fill="#ff8d0d" stroke="none" /><path d="M 120.9904718944345 100.63252640178507 l 19.08035693387215 0.5749670410867201 a40.08901798999359,40.08901798999359 0 0,0 -0.02672194037855502,0.6895745448976437 l -19.06763286064239 -0.9033188329983701" fill="#ff930d" stroke="none" /><path d="M 120.89721153311464 102.0752229133903 l 16.620758626853412 1.6505445755630361 a37.702512228046494,37.702512228046494 0 0,0 -0.06969165487243874,0.6452581699496923 l -16.589884670479922 -1.9363990673975198" fill="#ff6d0a" stroke="none" /><path d="M 120.8583938346157 102.4346265915055 l 19.391953162327937 2.263461185198337 a40.523603765361045,40.523603765361045 0 0,0 -0.08683338139618998,0.6921474858536895 l -19.3501182716849 -2.5969264253394213" fill="#ff990e" stroke="none" /><path d="M 120.76222939487914 103.15116336523771 l 20.81013514258143 3.158434204716098 a42.0484543679108,42.0484543679108 0 0,0 -0.1147687445803841,0.7146650820573736 l -20.752684643639757 -3.516178516466676" fill="#ffb110" stroke="none" /><path d="M 120.64145759157962 103.86396538481128 l 35.5040112725049 6.6461522869814935 a57.120716447212175,57.120716447212175 0 0,0 -0.18923295579574456,0.9648947647472754 l -35.38434838373349 -7.256310778796713" fill="#7dff26" stroke="none" /><path d="M 120.49622156327973 104.57218783832717 l 20.84934773462669 4.650961342069934 a42.36180569064357,42.36180569064357 0 0,0 -0.1648871439672901,0.7103295007135964 l -20.766200024728846 -5.009159500132095" fill="#ffb610" stroke="none" /><path d="M 120.41448212921028 104.9243191809786 l 20.538660702954125 4.954273158193551 a42.12774020090812,42.12774020090812 0 0,0 -0.17611137828365966,0.7034774132170301 l -20.450338010375404 -5.307078410807977" fill="#ffb210" stroke="none" /><path d="M 120.02730092923936 106.31721596034902 l 60.08190278771807 18.951647881047055 a84.0,84.0 0 0,0 -0.4468309959350121,1.375204400088819 l -59.746779540766816 -19.98305118111367" fill="#4dd2ff" stroke="none" /><path d="M 119.26925614724726 108.34839909993367 l 19.527835302230493 8.46042843662563 a42.28180445644361,42.28180445644361 0 0,0 -0.2950845427019432,0.6653377437486991 l -19.379309674797277 -8.795314516867016" fill="#ffb410" stroke="none" /><path d="M 118.81262510543309 109.33194174019688 l 13.570619125785791 6.731661655430575 a36.148497354534456,36.148497354534456 0 0,0 -0.2813064534716931,0.5550443202498063 l -13.45273400252783 -6.964260187383076" fill="#ff5407" stroke="none" /><line stroke="#e1ed5e" stroke-width="0.3" x1="174.80103733775053" x2="179.2010983576182" y1="140.37084112569926" y2="142.7455964860345" /><path d="M 175.68104954172406 140.8457921977663 a86.0,86.0 0 0,1 -30.038265399797805,32.042727171017184" fill="none" id="id17" stroke="none" /><text fill="#e1ed5e" style="font-size:6.75px; font-family:Arial;" text-anchor="middle"><textPath startOffset="22.206326154141568" xlink:href="#id17">May</textPath></text><path d="M 118.48025628344425 109.97397251340804 l 19.45934123976672 10.502394105234133 a43.112581111831844,43.112581111831844 0 0,0 -0.35808815215898765,0.6500340099034237 l -19.27567667815622 -10.835798633535362" fill="#ffc111" stroke="none" /><path d="M 118.30583269289576 110.29060199501025 l 21.159382131815914 11.89472140556337 a45.273521572202455,45.273521572202455 0 0,0 -0.38773107056727596,0.6760418034832448 l -20.951499065096257 -12.25718305490493" fill="#ffe115" stroke="none" /><path d="M 118.12598468904814 110.60418214915192 l 17.981825896073005 10.519845428949695 a41.83298371346926,41.83298371346926 0 0,0 -0.3689651719209095,0.6184068509764812 l -17.798079848453867 -10.82781437381228" fill="#ffae10" stroke="none" /><path d="M 117.75023020441432 111.22182372390056 l 32.05993609829596 20.268523131892753 a58.92957332445083,58.92957332445083 0 0,0 -0.5494344695329991,0.8527344980545497 l -31.70629676538591 -20.817379229868756" fill="#66ff29" stroke="none" /><path d="M 117.14729908036423 112.12312394758627 l 15.934436325419275 11.265631147076 a40.51462800441787,40.51462800441787 0 0,0 -0.4075003875675409,0.5659823973402239 l -15.73815614547613 -11.538247149867356" fill="#ff990e" stroke="none" /><path d="M 116.71984013943494 112.70617746262583 l 26.428050978844592 20.083894518615313 a54.19344359320489,54.19344359320489 0 0,0 -0.5708200130616222,0.7378618141942589 l -26.0784241485649 -20.535834326922824" fill="#a2ff22" stroke="none" /><path d="M 115.80600337817218 113.82643327865902 l 15.766367414337905 13.791761388727208 a41.9473392975691,41.9473392975691 0 0,0 -0.48007960861758203,0.5393745295708416 l -15.526628956071985 -14.061110088038916" fill="#ffaf10" stroke="none" /><path d="M 115.32070863581623 114.36230785411682 l 16.402920454802036 15.376820934229954 a43.48338100664434,43.48338100664434 0 0,0 -0.5166104135738158,0.5416639532509303 l -16.135803489849255 -15.656892004063392" fill="#ffc612" stroke="none" /><path d="M 114.81725581225074 114.88116024355365 l 32.35693962482664 32.49648987972051 a66.85840595122615,66.85840595122615 0 0,0 -0.8225177315037028,0.8050067173108777 l -31.79277194094714 -33.048646699953956" fill="#34ff5c" stroke="none" /><path d="M 114.0293411484842 115.62618273729858 l 11.966584056514845 13.328639401469552 a38.912335477989515,38.912335477989515 0 0,0 -0.502261242741588,0.4431871498061064 l -11.73538046086667 -13.532649693047947" fill="#ff800b" stroke="none" /><path d="M 113.48314897796784 116.09983520530334 l 13.593494231485394 16.231595256328735 a42.17186269525429,42.17186269525429 0 0,0 -0.5605441244360603,0.46128965276118 l -13.312079978504643 -16.463180027947097" fill="#ffb310" stroke="none" /><path d="M 112.92097659922987 116.55440617244103 l 13.216624382159065 16.93319127780862 a42.480505741484194,42.480505741484194 0 0,0 -0.5803065093475719,0.44495428582871377 l -12.923189144317998 -17.158184905464704" fill="#ffb711" stroke="none" /><path d="M 112.04921762599082 117.19931262002967 l 12.035487166397031 17.179713466433103 a41.976069844497815,41.976069844497815 0 0,0 -0.5953468292272701,0.409484977804738 l -11.737983452546878 -17.384339233602937" fill="#ffb010" stroke="none" /><path d="M 111.7513745106137 117.40417183066458 l 14.356302173718731 21.26215530435814 a46.65507084943961,46.65507084943961 0 0,0 -0.6694453942388433,0.44367190355989683 l -13.988182080739923 -21.506125229009353" fill="#fff517" stroke="none" /><path d="M 111.1453310114006 117.79835938074945 l 9.538328443511821 15.232082147725633 a38.97209047527217,38.97209047527217 0 0,0 -0.5716292613573231,0.3511413804633052 l -9.274719982222189 -15.394011995017316" fill="#ff810b" stroke="none" /><line stroke="#e1ed5e" stroke-width="0.3" x1="143.8653032363475" x2="146.44561519142675" y1="172.8068346515853" y2="177.08958963109032" /><path d="M 144.38136562736335 173.6633856474863 a86.0,86.0 0 0,1 -40.68145358897372,12.25698825130547" fill="none" id="id18" stroke="none" /><text fill="#e1ed5e" style="font-size:6.75px; font-family:Arial;" text-anchor="middle"><textPath startOffset="21.466115282336833" xlink:href="#id18">June</textPath></text><path d="M 110.8373102113329 117.98757091392108 l 9.302768913871693 15.440567102997669 a39.0264422981095,39.0264422981095 0 0,0 -0.5783944153632676,0.34172561562247517 l -9.035606627480044 -15.598411290913894" fill="#ff820c" stroke="none" /><path d="M 110.5260780823613 118.17145234162733 l 10.830231231629755 18.696520122166525 a42.606799235637524,42.606799235637524 0 0,0 -0.6377857084411223,0.3621513704373877 l -10.506796756267434 -18.88017465839854" fill="#ffb911" stroke="none" /><path d="M 109.89434966115114 118.52300852407294 l 10.097079388750833 18.90253467799048 a42.4302783331288,42.4302783331288 0 0,0 -0.6471811504016225,0.3385745902199898 l -9.770207335822716 -19.073538687155185" fill="#ffb710" stroke="none" /><path d="M 108.92500713936063 119.00905698771935 l 11.42151443608273 24.326279566103448 a47.87413011693343,47.87413011693343 0 0,0 -0.7489611389622612,0.34381132467345016 l -11.001085301353049 -24.519277961110973" fill="#f8ff18" stroke="none" /><path d="M 107.93186726928326 119.44442032107085 l 8.024921459229148 19.67253618843433 a42.24636544240108,42.24636544240108 0 0,0 -0.6756982745683695,0.26887428827387166 l -7.685102108618913 -19.80775732111427" fill="#ffb410" stroke="none" /><path d="M 107.59598834532513 119.57807347666477 l 12.950240609494541 33.3782452877526 a56.80245788117319,56.80245788117319 0 0,0 -0.9146001211254705,0.34582350658820893 l -12.373770267608796 -33.59621704444744" fill="#81ff25" stroke="none" /><path d="M 106.91757812671514 119.82793768551818 l 6.00086626650994 17.200355415138336 a39.21709697936572,39.21709697936572 0 0,0 -0.6392952039225208,0.216883643129056 l -5.703901329650192 -17.301102045165518" fill="#ff850c" stroke="none" /><path d="M 106.2309692047433 120.05430185196036 l 7.605731991024657 24.478959876259495 a46.63331105695903,46.63331105695903 0 0,0 -0.7686169515012339,0.2315779824263266 l -7.183240065083178 -24.606253227791544" fill="#fff417" stroke="none" /><path d="M 104.83641907484287 120.43548508189849 l 4.953681527824188 20.930958090230494 a42.50916007783874,42.50916007783874 0 0,0 -0.713505828270072,0.16239160353872947 l -4.592655550161254 -21.013126427346908" fill="#ffb811" stroke="none" /><path d="M 102.70371172650421 120.8252237178851 l 2.7333876846157046 21.053801513607997 a42.230496141371994,42.230496141371994 0 0,0 -0.7216841417177575,0.08738589911854419 l -2.3705761198465667 -21.09773294145189" fill="#ffb410" stroke="none" /><path d="M 102.34483914955558 120.86867818915974 l 2.169459437409378 19.307827938778857 a40.42932767658351,40.42932767658351 0 0,0 -0.6922413511262084,0.07175364644835015 l -1.8367854896775666 -19.342310953682965" fill="#ff980e" stroke="none" /><path d="M 101.62511606390274 120.93702456842531 l 1.912291146640188 24.63681678404983 a45.710920636033734,45.710920636033734 0 0,0 -0.7850028676396489,0.0541383938048982 l -1.4879255182216087 -24.666083522371014" fill="#ffe715" stroke="none" /><path d="M 100.90346689309514 120.98055641714683 l 0.8971109311976236 20.832956523675044 a41.85226331936677,41.85226331936677 0 0,0 -0.7200176654114607,0.024798864228908663 l -0.5383729141115106 -20.845312186330048" fill="#ffae10" stroke="none" /><line stroke="#e1ed5e" stroke-width="0.3" x1="102.19456741930631" x2="102.32365962044197" y1="184.97166512339345" y2="189.96999836594603" /><path d="M 102.22038585953345 185.97133177190398 a86.0,86.0 0 0,1 -42.740103519485714,-10.115201625700543" fill="none" id="id19" stroke="none" /><text fill="#e1ed5e" style="font-size:6.75px; font-family:Arial;" text-anchor="middle"><textPath startOffset="22.20632615414155" xlink:href="#id19">July</textPath></text><path d="M 100.18074693466247 120.99922214144158 l 0.156630684981357 18.197390479855002 a39.198064552248276,39.198064552248276 0 0,0 -0.6747552392876124,0.0 l 0.15663068498134447 -18.197390479855002" fill="#ff850c" stroke="none" /><path d="M 99.45781275523022 120.99299961872073 l -0.44104220047540904 17.076755006199793 a38.08244946617346,38.08244946617346 0 0,0 -0.6551625690717774,-0.022565123577890166 l 0.7349251212218294 -17.066633084195807" fill="#ff730a" stroke="none" /><path d="M 99.09653310690486 120.98055641714683 l -1.5379955407528134 35.71575500850893 a56.748854332848296,56.748854332848296 0 0,0 -0.9755720722868149,-0.0504259327559336 l 2.152555681453117 -35.6839892689908" fill="#81ff25" stroke="none" /><path d="M 98.73552117531835 120.96189622390904 l -1.3355712597854164 22.140430982943343 a43.18067705685384,43.18067705685384 0 0,0 -0.7415504838800173,-0.05114166301483897 l 1.7164845044443637 -22.11416097541222" fill="#ffc212" stroke="none" /><path d="M 97.65516085044442 120.86867818915974 l -2.37867100068169 21.169776033686986 a42.30299258428148,42.30299258428148 0 0,0 -0.722923045779003,-0.08753591314692624 l 2.742721469512082 -21.12569459181471" fill="#ffb510" stroke="none" /><path d="M 97.2962882734958 120.8252237178851 l -3.04873228465051 23.4827297826891 a44.67980926000596,44.67980926000596 0 0,0 -0.7618362974873336,-0.10558356896358717 l 3.4524971733246748 -23.426771648232908" fill="#ffd814" stroke="none" /><path d="M 96.58105272829116 120.7198165907248 l -3.49121310364003 21.157768587171326 a42.443874195753935,42.443874195753935 0 0,0 -0.7198299737870801,-0.1251516677750795 l 3.8548920488991603 -21.09453834087524" fill="#ffb711" stroke="none" /><path d="M 96.22490169976321 120.6578951692458 l -7.518721939278427 41.14355634622273 a62.82491372872145,62.82491372872145 0 0,0 -1.0621370945445447,-0.2035611020770474 l 8.225826648394667 -41.00803804579722" fill="#38ff2e" stroke="none" /><path d="M 94.11515582081647 120.15858648285463 l -5.147704022800123 17.633506270025332 a39.36952367595239,39.36952367595239 0 0,0 -0.6488941613625889,-0.19550648785857583 l 5.450473158602958 -17.54228441306103" fill="#ff870c" stroke="none" /><path d="M 93.42475214034765 119.94407469862007 l -4.89400121192476 14.844508956796227 a36.63044126154871,36.63044126154871 0 0,0 -0.5971289876044397,-0.20257857317714367 l 5.148799932466425 -14.75806739672096" fill="#ff5c08" stroke="none" /><path d="M 92.7421414339146 119.70592522655815 l -5.134361404229906 13.940384894059966 a35.855840535754986,35.855840535754986 0 0,0 -0.5773298783242539,-0.21829675982827565 l 5.373561503314443 -13.849939884125057" fill="#ff4f07" stroke="none" /><path d="M 91.40352486487194 119.15986991738527 l -7.3762427972021 16.440209533780862 a39.01914113707684,39.01914113707684 0 0,0 -0.6104303162475136,-0.28021861847289503 l 7.658141109217033 -16.310803844973893" fill="#ff820c" stroke="none" /><path d="M 90.42595943632237 118.69057910512821 l -11.393171716146083 22.241912994061956 a45.99013916305816,45.99013916305816 0 0,0 -0.7014790460952394,-0.3669806829698568 l 11.77434166476782 -22.042502892147382" fill="#ffeb16" stroke="none" /><path d="M 90.10565033884886 118.52300852407294 l -8.58040680842245 16.06320313061703 a39.21125684332323,39.21125684332323 0 0,0 -0.5926075447633549,-0.32313688347552094 l 8.855637165054446 -15.913125595381741" fill="#ff850c" stroke="none" /><line stroke="#e1ed5e" stroke-width="0.3" x1="58.666819895761336" x2="56.23545636021788" y1="174.27360380694188" y2="178.64263932499728" /><path d="M 58.180547188652646 175.14741091055294 a86.0,86.0 0 0,1 -31.652253787137756,-30.449443065178592" fill="none" id="id20" stroke="none" /><text fill="#e1ed5e" style="font-size:6.75px; font-family:Arial;" text-anchor="middle"><textPath startOffset="22.20632615414155" xlink:href="#id20">August</textPath></text><path d="M 89.4739219176387 118.17145234162733 l -12.129486117730872 20.939458855632274 a45.19887126803527,45.19887126803527 0 0,0 -0.6698733777078432,-0.39577299902273094 l 12.488127366467099 -20.727567284315793" fill="#ffe015" stroke="none" /><path d="M 89.1626897886671 117.98757091392108 l -18.783582266901643 31.17664913661341 a57.397890243322614,57.397890243322614 0 0,0 -0.8418925749974173,-0.517159181607407 l 19.31745404183137 -30.848701488177625" fill="#79ff26" stroke="none" /><path d="M 88.24862548938628 117.40417183066458 l -13.844293878319828 20.503854192960496 a45.7400992268719,45.7400992268719 0 0,0 -0.6487320786376025,-0.4462038391418536 l 14.195182841580321 -20.26250956445354" fill="#ffe815" stroke="none" /><path d="M 87.95078237400918 117.19931262002967 l -12.77566455742229 18.23625860800819 a43.26608930418471,43.26608930418471 0 0,0 -0.606287033955768,-0.43256970080828716 l 13.087678919226946 -18.013644645355683" fill="#ffc312" stroke="none" /><path d="M 87.36589467227662 116.77436683061367 l -21.50356843068073 28.550398755337962 a56.742533826545824,56.742533826545824 0 0,0 -0.77513346796774,-0.5943392898509487 l 21.991830627141958 -28.176020123659647" fill="#82ff25" stroke="none" /><path d="M 86.51685102203217 116.09983520530335 l -15.319084850618667 18.292072719365002 a44.859469504391576,44.859469504391576 0 0,0 -0.5877327982427066,-0.5008786412531965 l 15.631683125438432 -18.025669687888854" fill="#ffdb14" stroke="none" /><path d="M 85.18274418774928 114.88116024355367 l -15.403025904931877 15.469456668041548 a42.83019231780649,42.83019231780649 0 0,0 -0.5179585176086399,-0.5246892437329538 l 15.667025047596049 -15.20202693032793" fill="#ffbd11" stroke="none" /><path d="M 83.50135304334701 112.99209946851258 l -19.159478023963388 15.087409586138024 a45.38678999316281,45.38678999316281 0 0,0 -0.4780594540401335,-0.6179562874097934 l 19.41634429522159 -14.75537530461498" fill="#ffe215" stroke="none" /><path d="M 82.6465618267979 111.8261652097733 l -19.647778031890976 13.389730996876102 a44.776460580985606,44.776460580985606 0 0,0 -0.4285680727369976,-0.6406511198621123 l 19.875349210038706 -13.04954296280817" fill="#ffda14" stroke="none" /><path d="M 82.44556493220864 111.52570212397912 l -19.08688083841823 12.531858881812003 a43.83323251696149,43.83323251696149 0 0,0 -0.40868255948972376,-0.6342844079774003 l 19.299768261285 -12.201452873913155" fill="#ffcc13" stroke="none" /><path d="M 82.05923443525364 110.91462005526583 l -32.24157968202395 19.614803556787066 a58.73936908539471,58.73936908539471 0 0,0 -0.5180787859064362,-0.8683298450152777 l 32.57443934362862 -19.056911617885678" fill="#69ff28" stroke="none" /><line stroke="#e1ed5e" stroke-width="0.3" x1="26.63291911575756" x2="22.317208475507996" y1="142.92168965132927" y2="145.44649492493687" /><path d="M 25.769776987707644 143.4266507060508 a86.0,86.0 0 0,1 -11.730757126820373,-40.83630448921669" fill="none" id="id21" stroke="none" /><text fill="#e1ed5e" style="font-size:6.75px; font-family:Arial;" text-anchor="middle"><textPath startOffset="21.46611528233685" xlink:href="#id21">September</textPath></text><path d="M 81.69416730710424 110.29060199501025 l -16.72913249443856 9.404261860694836 a40.19124840027349,40.19124840027349 0 0,0 -0.33382389783817584,-0.6059873402820447 l 16.888532801728253 -9.114904002014969" fill="#ff940d" stroke="none" /><path d="M 81.51974371655577 109.97397251340807 l -24.284735631080828 13.10670598744744 a48.59590778562788,48.59590778562788 0 0,0 -0.39095984432936004,-0.7395486884069471 l 24.506747983635076 -12.686742283954366" fill="#eeff19" stroke="none" /><path d="M 81.02952815118164 109.00673069616217 l -18.98558144502172 9.013904374551183 a42.01672607422731,42.01672607422731 0 0,0 -0.3045720107516808,-0.6560210151610286 l 19.137928072613224 -8.685763292111329" fill="#ffb010" stroke="none" /><path d="M 80.87730276802145 108.67885076344099 l -32.38464530090859 14.69779603703301 a56.56389263862835,56.56389263862835 0 0,0 -0.39475917849970066,-0.8900777341372997 l 32.63284556413957 -14.138169966403014" fill="#84ff25" stroke="none" /><path d="M 79.97269907076064 106.31721596034903 l -17.530153756977114 5.529540275657821 a39.38156974807595,39.38156974807595 0 0,0 -0.19835789219185387,-0.6482450685938144 l 17.6227384216751 -5.226968234511959" fill="#ff880c" stroke="none" /><path d="M 79.76711848015287 105.62410040840567 l -17.77274814256641 4.9402612272033 a39.446592030294,39.446592030294 0 0,0 -0.17621717524395675,-0.6557696634810077 l 17.855153394152143 -4.633600630546753" fill="#ff890c" stroke="none" /><path d="M 79.58551787078972 104.9243191809786 l -20.367954818421108 4.913096004828047 a41.952138216370685,41.952138216370685 0 0,0 -0.1632925731337747,-0.7034601312966094 l 20.449507957485437 -4.561767216182862" fill="#ffaf10" stroke="none" /><path d="M 79.50377843672027 104.57218783832718 l -17.87756528092008 3.988031955253869 a39.31697953401939,39.31697953401939 0 0,0 -0.1416646214710984,-0.6618099489320652 l 17.94356394111562 -3.67970818690564" fill="#ff870c" stroke="none" /><path d="M 79.35854240842038 103.8639653848113 l -61.61118395293175 11.533268959091528 a83.68137108395715,83.68137108395715 0 0,0 -0.25285146215293436,-1.4181252800817237 l 61.80058185742388 -10.471024928276591" fill="#4dd5ff" stroke="none" /><path d="M 79.1416061653843 102.43462659150553 l -15.595252191558531 1.8203039020095708 a36.70112725933977,36.70112725933977 0 0,0 -0.06784063297736082,-0.6281200060943524 l 15.624275126036943 -1.5515875740304361" fill="#ff5d08" stroke="none" /><path d="M 79.07016306316243 101.71520430193888 l -35.55779959245457 2.9139687524805855 a56.676999954418754,56.676999954418754 0 0,0 -0.07131435158938344,-0.9730276679209444 l 35.60269050270829 -2.3014679480628804" fill="#82ff25" stroke="none" /><path d="M 79.0095281055655 100.63252640178507 l -20.983388101292043 0.6323129389239296 a41.992912991344845,41.992912991344845 0 0,0 -0.015553249758124584,-0.7226984009386206 l 20.991163413735176 -0.27102472219518015" fill="#ffb010" stroke="none" /><line stroke="#e1ed5e" stroke-width="0.3" x1="15.007084014347285" x2="10.007500721073583" y1="101.09737516637583" y2="101.16192664675087" /><path d="M 14.007167355692545 101.11028546245083 a86.0,86.0 0 0,1 10.666146001902534,-42.60595125391555" fill="none" id="id22" stroke="none" /><text fill="#e1ed5e" style="font-size:6.75px; font-family:Arial;" text-anchor="middle"><textPath startOffset="22.20632615414155" xlink:href="#id22">October</textPath></text><path d="M 79.00486145842228 99.54816195383935 l -20.87698774702911 -0.4492953135154006 a41.881821847443064,41.881821847443064 0 0,0 0.02171533681091429,-0.7206263101766309 l 20.86616071576255 0.808591771117026" fill="#ffae10" stroke="none" /><path d="M 79.03285615573316 98.82574320788736 l -21.069698728167044 -1.1800003387720555 a42.10271559054014,42.10271559054014 0 0,0 0.0467528783181274,-0.7232463342676553 l 21.046265258844503 1.5425057372927224" fill="#ffb210" stroke="none" /><path d="M 79.05617556472873 98.46500227214037 l -41.305315013240936 -3.0273155167913828 a62.41610420574674,62.41610420574674 0 0,0 0.0877556045071777,-1.0708406517828382 l 41.24708492491426 3.7378700857819993" fill="#3dff2e" stroke="none" /><path d="M 79.32604984820605 96.31383870115002 l -24.586120726707772 -4.3837005529289 a45.97386960256657,45.97386960256657 0 0,0 0.1456151740798635,-0.777882082555664 l 24.507019828718047 4.806260712947137" fill="#ffeb16" stroke="none" /><path d="M 79.54389044137918 95.25157060432595 l -20.188936794798803 -4.686411199994149 a41.72572360232114,41.72572360232114 0 0,0 0.1684272736599996,-0.6982397854073201 l 20.10527672087799 5.033236217060866" fill="#ffac0f" stroke="none" /><path d="M 79.71946130924805 94.55025226153421 l -20.105040584674366 -5.4025882215868055 a41.818276019003875,41.818276019003875 0 0,0 0.19278868336890836,-0.6935634689488452 l 20.009065130739096 5.747862993954594" fill="#ffad10" stroke="none" /><path d="M 79.81627453868168 94.20196356495316 l -20.537448248872142 -5.899647885027868 a42.36802812012412,42.36802812012412 0 0,0 0.20738968770257774,-0.699214927996728 l 20.432852664057858 6.2522921997711345" fill="#ffb610" stroke="none" /><path d="M 79.91906864156998 93.8553929516997 l -22.04381897020054 -6.745235218330038 a44.052725499202324,44.052725499202324 0 0,0 0.2281186820525175,-0.7231985611577547 l 21.92444480437982 7.123683945914207" fill="#ffcf13" stroke="none" /><path d="M 80.14247586403 93.16781622104843 l -19.744280861355993 -6.793221274935689 a41.88024142634245,41.88024142634245 0 0,0 0.24040638470890333,-0.6796612230440038 l 19.62442139583728 7.132080124406304" fill="#ffae10" stroke="none" /><path d="M 80.803312248108 91.48605970444005 l -21.710992448415304 -9.629061838803022 a44.75049525779703,44.75049525779703 0 0,0 0.31836287172654265,-0.7014703872516217 l 21.542027259725412 10.001354234896715" fill="#ffd914" stroke="none" /><path d="M 81.43458229118936 90.18545643968196 l -19.190337460759963 -10.14490521570375 a42.70686881366035,42.70686881366035 0 0,0 0.3491630230021292,-0.6469460529500342 l 19.01286633853936 10.473732251986256" fill="#ffbb11" stroke="none" /><line stroke="#e1ed5e" stroke-width="0.3" x1="26.266209847984243" x2="21.928928074336255" y1="57.711370442889674" y2="55.22380399835377" /><path d="M 25.398753493254645 57.213857153982495 a86.0,86.0 0 0,1 29.58750427330803,-30.492523968695096" fill="none" id="id23" stroke="none" /><text fill="#e1ed5e" style="font-size:6.75px; font-family:Arial;" text-anchor="middle"><textPath startOffset="21.46611528233685" xlink:href="#id23">November</textPath></text><path d="M 81.96595687620814 89.24020034530311 l -54.036475782354415 -32.2402275226324 a83.92354873724207,83.92354873724207 0 0,0 0.7508528075944997,-1.2342045922327183 l 53.473507176473696 33.165599888072194" fill="#4dd3ff" stroke="none" /><path d="M 82.34701348167596 88.62581576622439 l -15.699246158053718 -10.115348921143895 a39.675829666380324,39.675829666380324 0 0,0 0.3748484809893286,-0.5709199534228153 l 15.52280104170647 10.384086938544376" fill="#ff8c0c" stroke="none" /><path d="M 83.39014120810768 87.1503855733568 l -49.37360812778121 -38.19609999356812 a83.4235150746444,83.4235150746444 0 0,0 0.8884442251881697,-1.1282339430653139 l 48.70880982199907 39.040326330586474" fill="#4cd8ff" stroke="none" /><path d="M 84.07557802195018 86.31012108654704 l -18.100620215684636 -15.560709164369166 a44.86981612603109,44.86981612603109 0 0,0 0.5085419675124516,-0.5813513792346372 l 17.830086384594342 15.869976099806745" fill="#ffdb14" stroke="none" /><path d="M 84.5562425177563 85.77008943001954 l -15.242629075795609 -14.044590433988322 a41.726511081240034,41.726511081240034 0 0,0 0.49124557521163903,-0.5240265285285685 l 14.998616178613513 14.30488637939494" fill="#ffac0f" stroke="none" /><path d="M 85.57189188830299 84.74124197986013 l -14.341424829366902 -15.167084238710796 a41.87383315159271,41.87383315159271 0 0,0 0.5279933758967307,-0.49071230009915984 l 14.078223569675314 15.411701124884603" fill="#ffae10" stroke="none" /><path d="M 85.83668400450813 84.49514656593479 l -14.035937774463362 -15.365410054536888 a41.811135849652004,41.811135849652004 0 0,0 0.5355588637946938,-0.4808300358177763 l 13.769367923072696 15.604739099123943" fill="#ffad10" stroke="none" /><path d="M 86.37877921826538 84.01681056812374 l -13.518888193181926 -15.863112004595644 a41.84223261673519,41.84223261673519 0 0,0 0.5522028288824685,-0.4624539886858624 l 13.243827827340347 16.09346715067532" fill="#ffae10" stroke="none" /><path d="M 87.51073957382395 83.11751280151077 l -12.441747768395148 -16.818261470993715 a41.92011009624656,41.92011009624656 0 0,0 0.5837967874577348,-0.42415319380095223 l 12.15040566458363 17.029933899611333" fill="#ffaf10" stroke="none" /><path d="M 88.70189139769569 82.29822771554957 l -16.99635159738358 -26.629726818343393 a52.591427920267876,52.591427920267876 0 0,0 0.7672860125793236,-0.48047443068622053 l 16.535446432432014 26.918345590352544" fill="#b7ff1f" stroke="none" /><path d="M 89.00827224532344 82.1063720568725 l -9.506143941580829 -15.475219788999246 a39.16175102119528,39.16175102119528 0 0,0 0.5774268414048463,-0.3478932110733981 l 9.238355033958333 15.636559609531263" fill="#ff840c" stroke="none" /><line stroke="#e1ed5e" stroke-width="0.3" x1="56.762969772571076" x2="54.21961505331055" y1="26.818313649435495" y2="22.513508569990535" /><path d="M 56.25429882871897 25.957352633546506 a86.0,86.0 0 0,1 42.265352541879196,-11.944610805530505" fill="none" id="id24" stroke="none" /><text fill="#e1ed5e" style="font-size:6.75px; font-family:Arial;" text-anchor="middle"><textPath startOffset="22.20632615414155" xlink:href="#id24">December</textPath></text><path d="M 89.94658935756843 81.56283822128135 l -9.937615148101571 -18.224801979826303 a41.75812135130871,41.75812135130871 0 0,0 0.6340373257398533,-0.33868078130711365 l 9.622432775833412 18.393161487635165" fill="#ffac10" stroke="none" /><path d="M 90.58718382345135 81.22770947309562 l -9.393939388482725 -18.734643924321094 a41.95788587156606,41.95788587156606 0 0,0 0.6484066448009754,-0.31817032460469674 l 9.070061476671324 18.893569409060618" fill="#ffaf10" stroke="none" /><path d="M 92.23578459929587 80.48803036053334 l -3.7373543368471873 -9.39221036369985 a31.1084832173349,31.1084832173349 0 0,0 0.49924202645556637,-0.1936981500745176 l 3.5751291453919447 9.455151217664918" fill="#ff0000" stroke="none" /><path d="M 93.59665428221793 80.00007090966166 l -7.602636319978162 -23.74574074252238 a45.933116179590115,45.933116179590115 0 0,0 0.7550849324843808,-0.23460856408800634 l 7.192766014783052 23.873089441492912" fill="#ffea16" stroke="none" /><path d="M 93.94186890950719 79.89281104454417 l -6.89493294989206 -22.88456911674395 a44.90070300310303,44.90070300310303 0 0,0 0.7419515796748622,-0.2165960117590255 l 6.499991152493776 22.999863457421675" fill="#ffdb14" stroke="none" /><path d="M 94.63758080256005 79.69619591428918 l -6.116071064129776 -23.157366868979565 a44.95140842551849,44.95140842551849 0 0,0 0.7498132767880644,-0.19114409954231046 l 5.716548898656712 23.25921396469074" fill="#ffdc14" stroke="none" /><path d="M 95.33964822691252 79.52364482259891 l -5.289807984633772 -23.24201957009224 a44.836391132276,44.836391132276 0 0,0 0.7540141786219915,-0.16479829473837232 l 4.88895108185826 23.32963136292648" fill="#ffda14" stroke="none" /><path d="M 96.04723909329186 79.375362276772 l -8.912682049353524 -46.50441621659323 a68.35078277028805,68.35078277028805 0 0,0 1.1574224680738443,-0.2115115579822649 l 8.110864460176787 46.65094325592623" fill="#36ff71" stroke="none" /></svg>