<?xml version="1.0" encoding="utf-8" ?>
<svg baseProfile="full" height="200mm" version="1.1" viewBox="0,0,200,200" width="200mm" xmlns="http://www.w3.org/2000/svg" xmlns:ev="http://www.w3.org/2001/xml-events" xmlns:xlink="http://www.w3.org/1999/xlink"><defs /><rect fill="#1a1a1a" height="200" width="200" x="0" y="0" /><text alignment-baseline="middle" fill="#e1ed5e" style="dominant-baseline: central; font-size:9.0px; font-family:Arial;" text-anchor="middle" x="100.0" y="100.0">2025</text><line stroke="#e1ed5e" stroke-width="0.3" x1="100.0" x2="100.0" y1="15.0" y2="10.0" /><path d="M 100.0 14.0 a86.0,86.0 0 0,1 42.46469731375804,11.215312516191453" fill="none" id="id13" stroke="none" /><text fill="#e1ed5e" style="font-size:6.75px; font-family:Arial;" text-anchor="middle"><textPath startOffset="22.20632615414155" xlink:href="#id13">January</textPath></text><path d="M 100.0 79.0 l 0.0 -44.891265219800815 a65.89126521980081,65.89126521980081 0 0,0 1.1342098157869942,0.00976250196729699 l -0.7727293365144658 44.88461409444208" fill="red" stroke="none" /><path d="M 100.72285384407766 79.0124445844662 l 0.8286415801299406 -24.05902828777678 a45.07329410405571,45.07329410405571 0 0,0 0.7751730180996006,0.03338058077912734 l -1.2426554306188726 24.041199980473458" fill="red" stroke="none" /><path d="M 106.0581310904928 79.89281104454417 l 5.732037784158676 -19.024871714440824 a40.8696250822695,40.8696250822695 0 0,0 0.6718472566775403,0.20874621303458002 l -6.058670413546935 18.923385366523725" fill="red" stroke="none" /><path d="M 107.08798089147638 80.2323363322302 l 8.089314591853928 -22.56028234314883 a44.966713374356814,44.966713374356814 0 0,0 0.7263573299285953,0.2675235345943702 l -8.476454247555099 22.417695540748138" fill="red" stroke="none" /><path d="M 107.76421540070413 80.48803036053334 l 9.333556915772816 -23.455825189017446 a46.24462358597798,46.24462358597798 0 0,0 0.7370867361447685,0.3006761868192086 l -9.735927521505971 23.291688116014658" fill="red" stroke="none" /><path d="M 108.76106565485865 80.91482961587045 l 11.713090495175612 -25.515883184961893 a49.07591109219422,49.07591109219422 0 0,0 0.7647003528423663,0.35903706917175865 l -12.150569059317576 25.31048113315013" fill="red" stroke="none" /><path d="M 109.73455568895987 81.39251694778311 l 9.047413145527253 -17.29401856139474 a40.51765259009713,40.51765259009713 0 0,0 0.6152025824474987,0.32861991372880206 l -9.343760774503062 17.135719921164185" fill="red" stroke="none" /><line stroke="#e1ed5e" stroke-width="0.3" x1="143.23703022742887" x2="145.7803849466894" y1="26.81831364943548" y2="22.513508569990506" /><path d="M 143.74570117128098 25.957352633546492 a86.0,86.0 0 0,1 28.547481713284135,27.462654790039103" fill="none" id="id14" stroke="none" /><text fill="#e1ed5e" style="font-size:6.75px; font-family:Arial;" text-anchor="middle"><textPath startOffset="19.985693538727396" xlink:href="#id14">February</textPath></text><path d="M 112.19680574252982 82.90503203632743 l 13.674696640270977 -19.166370762406345 a44.54457679393416,44.54457679393416 0 0,0 0.6203461959249705,0.4507078934258342 l -14.002588152549736 18.928143634163835" fill="red" stroke="none" /><path d="M 113.06298171725822 83.55741782278167 l 18.952850482873394 -23.85625336560498 a51.46853075010499,51.46853075010499 0 0,0 0.688934717844452,0.5570706296320246 l -19.360688599282337 23.52647663870883" fill="red" stroke="none" /><path d="M 114.68862486808459 84.99185889309783 l 18.618998128585773 -19.024010327210547 a47.61916715906217,47.61916715906217 0 0,0 0.5808726596190321,0.5783782078179046 l -18.943706588372127 18.700696268742526" fill="red" stroke="none" /><path d="M 114.94478906791727 85.2469230424477 l 17.669585945682176 -17.44292007602504 a45.828808434366046,45.828808434366046 0 0,0 0.5493689921349668,0.5661730372928314 l -17.96721920152025 17.136182843182095" fill="red" stroke="none" /><path d="M 115.4437574822437 85.77008943001954 l 13.99664668237956 -12.896539640619832 a40.03225822264519,40.03225822264519 0 0,0 0.46257533515361204,0.5107872385744503 l -14.216565658149207 12.653699614775832" fill="red" stroke="none" /><path d="M 115.68641384162765 86.03803664274999 l 27.84008497076943 -24.779548094867618 a58.27058270225352,58.27058270225352 0 0,0 0.6604225141522017,0.7549770992510848 l -28.26249934849948 24.296655439413584" fill="red" stroke="none" /><path d="M 116.38621287248628 86.86637796730983 l 20.616613761291763 -16.524307040427257 a47.42153451540237,47.42153451540237 0 0,0 0.5050301279210586,0.6413369758472757 l -20.897997969806784 16.166977670626945" fill="red" stroke="none" /><path d="M 116.82858285166822 87.43820079747576 l 21.236582179446554 -15.85217741966119 a47.500640588649986,47.500640588649986 0 0,0 0.48346013444510705,0.659439080059699 l -21.50630492640529 15.484275895929997" fill="red" stroke="none" /><path d="M 117.04232023915458 87.72973835380427 l 16.944865139546604 -12.20009516920403 a41.87991323581248,41.87991323581248 0 0,0 0.4161813988582093,0.5886590740769346 l -17.152359158208696 11.906609594795302" fill="red" stroke="none" /><path d="M 117.45458315368197 88.32363383020206 l 19.995477794383483 -13.376115511417114 a45.057007261928,45.057007261928 0 0,0 0.4256886591175679,0.6483530326562574 l -20.222763088858976 13.029944414783182" fill="red" stroke="none" /><path d="M 117.65298651832404 88.62581576622439 l 48.83038833364396 -31.462428894802297 a79.08864998237576,79.08864998237576 0 0,0 0.7275116488932276,1.150748716248701 l -49.364727578783146 30.61723253083939" fill="red" stroke="none" /><line stroke="#e1ed5e" stroke-width="0.3" x1="172.23445277983987" x2="176.4835382374775" y1="55.19839476539836" y2="52.563006222186495" /><path d="M 173.08426987136738 54.67131705675599 a86.0,86.0 0 0,1 12.851231095245387,41.99856678651699" fill="none" id="id15" stroke="none" /><text fill="#e1ed5e" style="font-size:6.75px; font-family:Arial;" text-anchor="middle"><textPath startOffset="22.20632615414155" xlink:href="#id15">March</textPath></text><path d="M 118.03404312379186 89.2402003453031 l 18.00135278903148 -10.740295351072236 a41.96193327113306,41.96193327113306 0 0,0 0.3647497599603349,0.6234755751440748 l -18.18356222346214 10.428840363574267" fill="red" stroke="none" /><path d="M 118.3937258080291 89.86733742301442 l 22.992040556806007 -12.665763932220216 a47.24986676066267,47.24986676066267 0 0,0 0.38630568741964055,0.7157657691225882 l -23.206654343444114 12.268117179765168" fill="red" stroke="none" /><path d="M 118.56541770881063 90.18545643968196 l 23.26595766680005 -12.299467675589037 a47.316946845259075,47.316946845259075 0 0,0 0.37445858177839286,0.7233347922231184 l -23.474225681738556 11.897160161105575" fill="red" stroke="none" /><path d="M 118.89224826269711 90.83032412892265 l 22.245208457901974 -10.797092458618176 a45.727039954176945,45.727039954176945 0 0,0 0.3376001364174177,0.7110719860640248 l -22.427766788161147 10.412578056913611" fill="red" stroke="none" /><path d="M 119.04729006885535 91.15688171328212 l 57.14187020656606 -26.529354860153646 a84.0,84.0 0 0,0 0.5975907321466121,1.3167119646317489 l -57.59006325567602 25.541820886679833" fill="red" stroke="none" /><path d="M 119.47837535516314 92.15188598940014 l 22.83504972557424 -9.200565776987132 a45.61889328516038,45.61889328516038 0 0,0 0.2871958066455518,0.7308820019688205 l -22.990039082101493 8.806134770122528" fill="red" stroke="none" /><line stroke="#e1ed5e" stroke-width="0.3" x1="184.98032266829074" x2="189.97916517819016" y1="98.17113171792111" y2="98.06355123074" /><path d="M 185.9800911702706 98.14961562048488 a86.0,86.0 0 0,1 -9.607161424134198,41.387399972396054" fill="none" id="id16" stroke="none" /><text fill="#e1ed5e" style="font-size:6.75px; font-family:Arial;" text-anchor="middle"><textPath startOffset="21.466115282336823" xlink:href="#id16">April</textPath></text><line stroke="#e1ed5e" stroke-width="0.3" x1="174.80103733775053" x2="179.2010983576182" y1="140.37084112569926" y2="142.7455964860345" /><path d="M 175.68104954172406 140.8457921977663 a86.0,86.0 0 0,1 -30.038265399797805,32.042727171017184" fill="none" id="id17" stroke="none" /><text fill="#e1ed5e" style="font-size:6.75px; font-family:Arial;" text-anchor="middle"><textPath startOffset="22.206326154141568" xlink:href="#id17">May</textPath></text><line stroke="#e1ed5e" stroke-width="0.3" x1="143.8653032363475" x2="146.44561519142675" y1="172.8068346515853" y2="177.08958963109032" /><path d="M 144.38136562736335 173.6633856474863 a86.0,86.0 0 0,1 -40.68145358897372,12.25698825130547" fill="none" id="id18" stroke="none" /><text fill="#e1ed5e" style="font-size:6.75px; font-family:Arial;" text-anchor="middle"><textPath startOffset="21.466115282336833" xlink:href="#id18">June</textPath></text><line stroke="#e1ed5e" stroke-width="0.3" x1="102.19456741930631" x2="102.32365962044197" y1="184.97166512339345" y2="189.96999836594603" /><path d="M 102.22038585953345 185.97133177190398 a86.0,86.0 0 0,1 -42.740103519485714,-10.115201625700543" fill="none" id="id19" stroke="none" /><text fill="#e1ed5e" style="font-size:6.75px; font-family:Arial;" text-anchor="middle"><textPath startOffset="22.20632615414155" xlink:href="#id19">July</textPath></text><line stroke="#e1ed5e" stroke-width="0.3" x1="58.666819895761336" x2="56.23545636021788" y1="174.27360380694188" y2="178.64263932499728" /><path d="M 58.180547188652646 175.14741091055294 a86.0,86.0 0 0,1 -31.652253787137756,-30.449443065178592" fill="none" id="id20" stroke="none" /><text fill="#e1ed5e" style="font-size:6.75px; font-family:Arial;" text-anchor="middle"><textPath startOffset="22.20632615414155" xlink:href="#id20">August</textPath></text><line stroke="#e1ed5e" stroke-width="0.3" x1="26.63291911575756" x2="22.317208475507996" y1="142.92168965132927" y2="145.44649492493687" /><path d="M 25.769776987707644 143.4266507060508 a86.0,86.0 0 0,1 -11.730757126820373,-40.83630448921669" fill="none" id="id21" stroke="none" /><text fill="#e1ed5e" style="font-size:6.75px; font-family:Arial;" text-anchor="middle"><textPath startOffset="21.46611528233685" xlink:href="#id21">September</textPath></text><line stroke="#e1ed5e" stroke-width="0.3" x1="15.007084014347285" x2="10.007500721073583" y1="101.09737516637583" y2="101.16192664675087" /><path d="M 14.007167355692545 101.11028546245083 a86.0,86.0 0 0,1 10.666146001902534,-42.60595125391555" fill="none" id="id22" stroke="none" /><text fill="#e1ed5e" style="font-size:6.75px; font-family:Arial;" text-anchor="middle"><textPath startOffset="22.20632615414155" xlink:href="#id22">October</textPath></text><line stroke="#e1ed5e" stroke-width="0.3" x1="26.266209847984243" x2="21.928928074336255" y1="57.711370442889674" y2="55.22380399835377" /><path d="M 25.398753493254645 57.213857153982495 a86.0,86.0 0 0,1 29.58750427330803,-30.492523968695096" fill="none" id="id23" stroke="none" /><text fill="#e1ed5e" style="font-size:6.75px; font-family:Arial;" text-anchor="middle"><textPath startOffset="21.46611528233685" xlink:href="#id23">November</textPath></text><line stroke="#e1ed5e" stroke-width="0.3" x1="56.762969772571076" x2="54.21961505331055" y1="26.818313649435495" y2="22.513508569990535" /><path d="M 56.25429882871897 25.957352633546506 a86.0,86.0 0 0,1 42.265352541879196,-11.944610805530505" fill="none" id="id24" stroke="none" /><text fill="#e1ed5e" style="font-size:6.75px; font-family:Arial;" text-anchor="middle"><textPath startOffset="22.20632615414155" xlink:href="#id24">December</textPath></text></svg>